<?xml version="1.0" encoding="UTF-8" standalone="no"?>
<!DOCTYPE svg PUBLIC "-//W3C//DTD SVG 1.0//EN"
 "http://www.w3.org/TR/2001/REC-SVG-20010904/DTD/svg10.dtd" [
 <!ATTLIST svg xmlns:xlink CDATA #FIXED "http://www.w3.org/1999/xlink">
]>
<!-- Generated by Graphviz version 2.20.2 (Mon Aug &#160;4 08:59:22 UTC 2008)
     For user: Christoffer Nellaker -->
<!-- Title: tree Pages: 1 -->
<svg width="347pt" height="576pt"
 viewBox="0.00 0.00 346.75 576.00" xmlns="http://www.w3.org/2000/svg" xmlns:xlink="http://www.w3.org/1999/xlink">
<g id="graph0" class="graph" transform="scale(0.358209 0.358209) rotate(0) translate(4 1604)">
<title>RNASeq Pipeline</title>
<polygon style="fill:white;stroke:white;" points="-4,4 -4,-1604 964,-1604 964,4 -4,4"/>
<g id="cluster2" class="cluster"><title>clustertasks</title>
<polygon style="fill:none;stroke:black;" points="8,-16 8,-1592 952,-1592 952,-16 8,-16"/>
<text text-anchor="middle" x="480" y="-1561" style="font-family:Times New Roman;font-size:20.00pt;fill:red;"><tspan font-weight = "bold">RNASeq Pipeline:</tspan></text>
</g>
<!-- t1 -->
<g id="node2" class="node"><title>t1</title>
<polygon style="fill:#90ee90;stroke:green;" points="381,-1542 239,-1542 235,-1538 235,-1506 377,-1506 381,-1510 381,-1542"/>
<polyline style="fill:none;stroke:green;" points="377,-1538 235,-1538 "/>
<polyline style="fill:none;stroke:green;" points="377,-1538 377,-1506 "/>
<polyline style="fill:none;stroke:green;" points="377,-1538 381,-1542 "/>
<text text-anchor="middle" x="308" y="-1517.5" style="font-family:Times New Roman;font-size:20.00;">prepare_indexes</text>
</g>
<!-- t3 -->
<g id="node3" class="node"><title>t3</title>
<polygon style="fill:#90ee90;stroke:green;" points="454,-1484 276,-1484 272,-1480 272,-1448 450,-1448 454,-1452 454,-1484"/>
<polyline style="fill:none;stroke:green;" points="450,-1480 272,-1480 "/>
<polyline style="fill:none;stroke:green;" points="450,-1480 450,-1448 "/>
<polyline style="fill:none;stroke:green;" points="450,-1480 454,-1484 "/>
<text text-anchor="middle" x="363" y="-1459.5" style="font-family:Times New Roman;font-size:20.00;">symbolic_link_make</text>
</g>
<!-- t1&#45;&gt;t3 -->
<g id="edge3" class="edge"><title>t1&#45;&gt;t3</title>
<path style="fill:none;stroke:gray;" d="M325,-1506C329,-1501 334,-1496 339,-1491"/>
<polygon style="fill:gray;stroke:gray;" points="341.404,-1493.55 346,-1484 336.454,-1488.6 341.404,-1493.55"/>
</g>
<!-- t2 -->
<g id="node46" class="node"><title>t2</title>
<polygon style="fill:#90ee90;stroke:green;" points="610,-814 420,-814 416,-810 416,-778 606,-778 610,-782 610,-814"/>
<polyline style="fill:none;stroke:green;" points="606,-810 416,-810 "/>
<polyline style="fill:none;stroke:green;" points="606,-810 606,-778 "/>
<polyline style="fill:none;stroke:green;" points="606,-810 610,-814 "/>
<text text-anchor="middle" x="513" y="-789.5" style="font-family:Times New Roman;font-size:20.00;">chromosome_size_list</text>
</g>
<!-- t1&#45;&gt;t2 -->
<g id="edge43" class="edge"><title>t1&#45;&gt;t2</title>
<path style="fill:none;stroke:gray;" d="M282,-1506C275,-1500 268,-1492 263,-1484 242,-1447 266,-1426 243,-1390 212,-1340 175,-1356 139,-1310 123,-1287 122,-1279 116,-1252 112,-1229 114,-1222 116,-1200 118,-1190 120,-1187 121,-1178 128,-1144 131,-1136 131,-1102 131,-1102 131,-1102 131,-920 131,-824 169,-882 344,-836 370,-829 398,-823 423,-816"/>
<polygon style="fill:gray;stroke:gray;" points="423.881,-819.393 433,-814 422.508,-812.529 423.881,-819.393"/>
</g>
<!-- t4 -->
<g id="node6" class="node"><title>t4</title>
<polygon style="fill:#90ee90;stroke:green;" points="419,-1426 311,-1426 307,-1422 307,-1390 415,-1390 419,-1394 419,-1426"/>
<polyline style="fill:none;stroke:green;" points="415,-1422 307,-1422 "/>
<polyline style="fill:none;stroke:green;" points="415,-1422 415,-1390 "/>
<polyline style="fill:none;stroke:green;" points="415,-1422 419,-1426 "/>
<text text-anchor="middle" x="363" y="-1401.5" style="font-family:Times New Roman;font-size:20.00;">TopHat_run</text>
</g>
<!-- t3&#45;&gt;t4 -->
<g id="edge5" class="edge"><title>t3&#45;&gt;t4</title>
<path style="fill:none;stroke:gray;" d="M363,-1448C363,-1444 363,-1440 363,-1436"/>
<polygon style="fill:gray;stroke:gray;" points="366.5,-1436 363,-1426 359.5,-1436 366.5,-1436"/>
</g>
<!-- t0 -->
<g id="node5" class="node"><title>t0</title>
<polygon style="fill:#90ee90;stroke:green;" points="226,-1484 42,-1484 38,-1480 38,-1448 222,-1448 226,-1452 226,-1484"/>
<polyline style="fill:none;stroke:green;" points="222,-1480 38,-1480 "/>
<polyline style="fill:none;stroke:green;" points="222,-1480 222,-1448 "/>
<polyline style="fill:none;stroke:green;" points="222,-1480 226,-1484 "/>
<text text-anchor="middle" x="132" y="-1459.5" style="font-family:Times New Roman;font-size:20.00;">export_to_fastq_files</text>
</g>
<!-- t0&#45;&gt;t4 -->
<g id="edge85" class="edge"><title>t0&#45;&gt;t4</title>
<path style="fill:none;stroke:gray;" d="M204,-1448C234,-1441 268,-1432 297,-1425"/>
<polygon style="fill:gray;stroke:gray;" points="298.427,-1428.23 307,-1422 296.416,-1421.52 298.427,-1428.23"/>
</g>
<!-- t43 -->
<g id="node50" class="node"><title>t43</title>
<polygon style="fill:#90ee90;stroke:green;" points="234,-1426 20,-1426 16,-1422 16,-1390 230,-1390 234,-1394 234,-1426"/>
<polyline style="fill:none;stroke:green;" points="230,-1422 16,-1422 "/>
<polyline style="fill:none;stroke:green;" points="230,-1422 230,-1390 "/>
<polyline style="fill:none;stroke:green;" points="230,-1422 234,-1426 "/>
<text text-anchor="middle" x="125" y="-1401.5" style="font-family:Times New Roman;font-size:20.00;">prepare_fastq_for_velvet</text>
</g>
<!-- t0&#45;&gt;t43 -->
<g id="edge47" class="edge"><title>t0&#45;&gt;t43</title>
<path style="fill:none;stroke:gray;" d="M130,-1448C129,-1444 129,-1440 128,-1436"/>
<polygon style="fill:gray;stroke:gray;" points="131.478,-1435.6 127,-1426 124.512,-1436.3 131.478,-1435.6"/>
</g>
<!-- t6 -->
<g id="node8" class="node"><title>t6</title>
<polygon style="fill:#90ee90;stroke:green;" points="458,-1368 272,-1368 268,-1364 268,-1332 454,-1332 458,-1336 458,-1368"/>
<polyline style="fill:none;stroke:green;" points="454,-1364 268,-1364 "/>
<polyline style="fill:none;stroke:green;" points="454,-1364 454,-1332 "/>
<polyline style="fill:none;stroke:green;" points="454,-1364 458,-1368 "/>
<text text-anchor="middle" x="363" y="-1343.5" style="font-family:Times New Roman;font-size:20.00;">tophatSAM_to_BAM</text>
</g>
<!-- t4&#45;&gt;t6 -->
<g id="edge7" class="edge"><title>t4&#45;&gt;t6</title>
<path style="fill:none;stroke:gray;" d="M363,-1390C363,-1386 363,-1382 363,-1378"/>
<polygon style="fill:gray;stroke:gray;" points="366.5,-1378 363,-1368 359.5,-1378 366.5,-1378"/>
</g>
<!-- t46 -->
<g id="node82" class="node"><title>t46</title>
<polygon style="fill:none;stroke:blue;" points="451,-118 313,-118 309,-114 309,-82 447,-82 451,-86 451,-118"/>
<polyline style="fill:none;stroke:blue;" points="447,-114 309,-114 "/>
<polyline style="fill:none;stroke:blue;" points="447,-114 447,-82 "/>
<polyline style="fill:none;stroke:blue;" points="447,-114 451,-118 "/>
<text text-anchor="middle" x="380" y="-93.5" style="font-family:Times New Roman;font-size:20.00;fill:blue;">compile_results</text>
</g>
<!-- t4&#45;&gt;t46 -->
<g id="edge127" class="edge"><title>t4&#45;&gt;t46</title>
<path style="fill:none;stroke:gray;" d="M419,-1403C565,-1388 943,-1344 943,-1292 943,-1292 943,-1292 943,-216 943,-185 935,-172 848,-140 779,-114 576,-105 461,-101"/>
<polygon style="fill:gray;stroke:gray;" points="461,-97.5001 451,-101 461,-104.5 461,-97.5001"/>
</g>
<!-- t7 -->
<g id="node10" class="node"><title>t7</title>
<polygon style="fill:#90ee90;stroke:green;" points="523,-1310 227,-1310 223,-1306 223,-1274 519,-1274 523,-1278 523,-1310"/>
<polyline style="fill:none;stroke:green;" points="519,-1306 223,-1306 "/>
<polyline style="fill:none;stroke:green;" points="519,-1306 519,-1274 "/>
<polyline style="fill:none;stroke:green;" points="519,-1306 523,-1310 "/>
<text text-anchor="middle" x="373" y="-1285.5" style="font-family:Times New Roman;font-size:20.00;">get_req_qnames_from_Tophat_run</text>
</g>
<!-- t6&#45;&gt;t7 -->
<g id="edge9" class="edge"><title>t6&#45;&gt;t7</title>
<path style="fill:none;stroke:gray;" d="M366,-1332C367,-1328 367,-1324 368,-1320"/>
<polygon style="fill:gray;stroke:gray;" points="371.471,-1320.49 370,-1310 364.607,-1319.12 371.471,-1320.49"/>
</g>
<!-- t22 -->
<g id="node60" class="node"><title>t22</title>
<polygon style="fill:#90ee90;stroke:green;" points="786,-814 632,-814 628,-810 628,-778 782,-778 786,-782 786,-814"/>
<polyline style="fill:none;stroke:green;" points="782,-810 628,-810 "/>
<polyline style="fill:none;stroke:green;" points="782,-810 782,-778 "/>
<polyline style="fill:none;stroke:green;" points="782,-810 786,-814 "/>
<text text-anchor="middle" x="707" y="-789.5" style="font-family:Times New Roman;font-size:20.00;">uniques_repairing</text>
</g>
<!-- t6&#45;&gt;t22 -->
<g id="edge97" class="edge"><title>t6&#45;&gt;t22</title>
<path style="fill:none;stroke:gray;" d="M279,-1332C258,-1326 235,-1319 214,-1310 171,-1290 148,-1293 125,-1252 114,-1231 120,-1222 125,-1200 128,-1189 133,-1188 136,-1178 148,-1145 151,-1136 151,-1102 151,-1102 151,-1102 151,-920 151,-914 460,-848 618,-815"/>
<polygon style="fill:gray;stroke:gray;" points="618.881,-818.393 628,-813 617.508,-811.529 618.881,-818.393"/>
</g>
<!-- t8 -->
<g id="node12" class="node"><title>t8</title>
<polygon style="fill:#90ee90;stroke:green;" points="607.975,-1232.77 373,-1247.92 138.025,-1232.77 138.244,-1208.27 607.756,-1208.27 607.975,-1232.77"/>
<polygon style="fill:none;stroke:green;" points="612,-1236.52 373,-1251.93 134,-1236.52 134.288,-1204.27 611.712,-1204.27 612,-1236.52"/>
<text text-anchor="middle" x="373" y="-1219.5" style="font-family:Times New Roman;font-size:20.00;">prepare_raw_files_of_unmapped_reads</text>
</g>
<!-- t7&#45;&gt;t8 -->
<g id="edge11" class="edge"><title>t7&#45;&gt;t8</title>
<path style="fill:none;stroke:gray;" d="M373,-1274C373,-1270 373,-1266 373,-1262"/>
<polygon style="fill:gray;stroke:gray;" points="376.5,-1262 373,-1252 369.5,-1262 376.5,-1262"/>
</g>
<!-- t17 -->
<g id="node23" class="node"><title>t17</title>
<polygon style="fill:#90ee90;stroke:green;" points="797,-1004 503,-1004 499,-1000 499,-968 793,-968 797,-972 797,-1004"/>
<polyline style="fill:none;stroke:green;" points="793,-1000 499,-1000 "/>
<polyline style="fill:none;stroke:green;" points="793,-1000 793,-968 "/>
<polyline style="fill:none;stroke:green;" points="793,-1000 797,-1004 "/>
<text text-anchor="middle" x="648" y="-979.5" style="font-family:Times New Roman;font-size:20.00;">get_req_qnames_post_xenoMRNA</text>
</g>
<!-- t7&#45;&gt;t17 -->
<g id="edge91" class="edge"><title>t7&#45;&gt;t17</title>
<path style="fill:none;stroke:gray;" d="M523,-1275C571,-1268 613,-1260 621,-1252 650,-1222 631,-1201 631,-1160 631,-1160 631,-1160 631,-1102 631,-1072 637,-1038 642,-1014"/>
<polygon style="fill:gray;stroke:gray;" points="645.471,-1014.49 644,-1004 638.607,-1013.12 645.471,-1014.49"/>
</g>
<!-- t14 -->
<g id="node17" class="node"><title>t14</title>
<polygon style="fill:#90ee90;stroke:green;" points="612,-1178 334,-1178 330,-1174 330,-1142 608,-1142 612,-1146 612,-1178"/>
<polyline style="fill:none;stroke:green;" points="608,-1174 330,-1174 "/>
<polyline style="fill:none;stroke:green;" points="608,-1174 608,-1142 "/>
<polyline style="fill:none;stroke:green;" points="608,-1174 612,-1178 "/>
<text text-anchor="middle" x="471" y="-1153.5" style="font-family:Times New Roman;font-size:20.00;">run_Bowtie_against_xenomRNA</text>
</g>
<!-- t8&#45;&gt;t14 -->
<g id="edge87" class="edge"><title>t8&#45;&gt;t14</title>
<path style="fill:none;stroke:gray;" d="M405,-1204C415,-1198 426,-1190 436,-1184"/>
<polygon style="fill:gray;stroke:gray;" points="438.1,-1186.8 444,-1178 433.9,-1181.2 438.1,-1186.8"/>
</g>
<!-- t12 -->
<g id="node14" class="node"><title>t12</title>
<polygon style="fill:#90ee90;stroke:green;" points="906,-1310 672,-1310 668,-1306 668,-1274 902,-1274 906,-1278 906,-1310"/>
<polyline style="fill:none;stroke:green;" points="902,-1306 668,-1306 "/>
<polyline style="fill:none;stroke:green;" points="902,-1306 902,-1274 "/>
<polyline style="fill:none;stroke:green;" points="902,-1306 906,-1310 "/>
<text text-anchor="middle" x="787" y="-1285.5" style="font-family:Times New Roman;font-size:20.00;">prepare_xenoMrna_indexes</text>
</g>
<!-- t13 -->
<g id="node15" class="node"><title>t13</title>
<polygon style="fill:#90ee90;stroke:green;" points="924,-1244 654,-1244 650,-1240 650,-1208 920,-1208 924,-1212 924,-1244"/>
<polyline style="fill:none;stroke:green;" points="920,-1240 650,-1240 "/>
<polyline style="fill:none;stroke:green;" points="920,-1240 920,-1208 "/>
<polyline style="fill:none;stroke:green;" points="920,-1240 924,-1244 "/>
<text text-anchor="middle" x="787" y="-1219.5" style="font-family:Times New Roman;font-size:20.00;">xenoMrna_symbolic_link_make</text>
</g>
<!-- t12&#45;&gt;t13 -->
<g id="edge13" class="edge"><title>t12&#45;&gt;t13</title>
<path style="fill:none;stroke:gray;" d="M787,-1274C787,-1268 787,-1261 787,-1254"/>
<polygon style="fill:gray;stroke:gray;" points="790.5,-1254 787,-1244 783.5,-1254 790.5,-1254"/>
</g>
<!-- t13&#45;&gt;t14 -->
<g id="edge15" class="edge"><title>t13&#45;&gt;t14</title>
<path style="fill:none;stroke:gray;" d="M701,-1208C659,-1200 611,-1189 568,-1180"/>
<polygon style="fill:gray;stroke:gray;" points="568.492,-1176.53 558,-1178 567.119,-1183.39 568.492,-1176.53"/>
</g>
<!-- t13&#45;&gt;t17 -->
<g id="edge89" class="edge"><title>t13&#45;&gt;t17</title>
<path style="fill:none;stroke:gray;" d="M777,-1208C753,-1166 692,-1063 664,-1013"/>
<polygon style="fill:gray;stroke:gray;" points="666.916,-1011.04 659,-1004 660.797,-1014.44 666.916,-1011.04"/>
</g>
<!-- t15 -->
<g id="node19" class="node"><title>t15</title>
<polygon style="fill:#90ee90;stroke:green;" points="600,-1120 372,-1120 368,-1116 368,-1084 596,-1084 600,-1088 600,-1120"/>
<polyline style="fill:none;stroke:green;" points="596,-1116 368,-1116 "/>
<polyline style="fill:none;stroke:green;" points="596,-1116 596,-1084 "/>
<polyline style="fill:none;stroke:green;" points="596,-1116 600,-1120 "/>
<text text-anchor="middle" x="484" y="-1095.5" style="font-family:Times New Roman;font-size:20.00;">xenoMrna_SAM_to_BAM</text>
</g>
<!-- t14&#45;&gt;t15 -->
<g id="edge17" class="edge"><title>t14&#45;&gt;t15</title>
<path style="fill:none;stroke:gray;" d="M475,-1142C476,-1138 477,-1134 478,-1130"/>
<polygon style="fill:gray;stroke:gray;" points="481.471,-1130.49 480,-1120 474.607,-1129.12 481.471,-1130.49"/>
</g>
<!-- t16 -->
<g id="node21" class="node"><title>t16</title>
<polygon style="fill:#90ee90;stroke:green;" points="603,-1062 413,-1062 409,-1058 409,-1026 599,-1026 603,-1030 603,-1062"/>
<polyline style="fill:none;stroke:green;" points="599,-1058 409,-1058 "/>
<polyline style="fill:none;stroke:green;" points="599,-1058 599,-1026 "/>
<polyline style="fill:none;stroke:green;" points="599,-1058 603,-1062 "/>
<text text-anchor="middle" x="506" y="-1037.5" style="font-family:Times New Roman;font-size:20.00;">FilterxenoMrna_SAM</text>
</g>
<!-- t15&#45;&gt;t16 -->
<g id="edge19" class="edge"><title>t15&#45;&gt;t16</title>
<path style="fill:none;stroke:gray;" d="M491,-1084C492,-1080 494,-1076 495,-1072"/>
<polygon style="fill:gray;stroke:gray;" points="498.536,-1072.58 499,-1062 492.036,-1069.98 498.536,-1072.58"/>
</g>
<!-- t16&#45;&gt;t17 -->
<g id="edge21" class="edge"><title>t16&#45;&gt;t17</title>
<path style="fill:none;stroke:gray;" d="M550,-1026C564,-1020 580,-1014 595,-1008"/>
<polygon style="fill:gray;stroke:gray;" points="596.283,-1011.26 604,-1004 593.44,-1004.86 596.283,-1011.26"/>
</g>
<!-- t18 -->
<g id="node25" class="node"><title>t18</title>
<polygon style="fill:#90ee90;stroke:green;" points="902.126,-926.774 682,-941.92 461.874,-926.774 462.079,-902.266 901.921,-902.266 902.126,-926.774"/>
<polygon style="fill:none;stroke:green;" points="906.148,-930.506 682,-945.93 457.852,-930.506 458.122,-898.266 905.878,-898.266 906.148,-930.506"/>
<text text-anchor="middle" x="682" y="-913.5" style="font-family:Times New Roman;font-size:20.00;">prepare_raw_files_post_xenoMRNA</text>
</g>
<!-- t17&#45;&gt;t18 -->
<g id="edge23" class="edge"><title>t17&#45;&gt;t18</title>
<path style="fill:none;stroke:gray;" d="M657,-968C659,-964 662,-959 664,-955"/>
<polygon style="fill:gray;stroke:gray;" points="667.203,-956.441 669,-946 661.084,-953.042 667.203,-956.441"/>
</g>
<!-- t21 -->
<g id="node27" class="node"><title>t21</title>
<polygon style="fill:#90ee90;stroke:green;" points="254,-814 40,-814 36,-810 36,-778 250,-778 254,-782 254,-814"/>
<polyline style="fill:none;stroke:green;" points="250,-810 36,-810 "/>
<polyline style="fill:none;stroke:green;" points="250,-810 250,-778 "/>
<polyline style="fill:none;stroke:green;" points="250,-810 254,-814 "/>
<text text-anchor="middle" x="145" y="-789.5" style="font-family:Times New Roman;font-size:20.00;">bowtie_run_multi_onehit</text>
</g>
<!-- t18&#45;&gt;t21 -->
<g id="edge25" class="edge"><title>t18&#45;&gt;t21</title>
<path style="fill:none;stroke:gray;" d="M588,-898C487,-875 331,-839 233,-816"/>
<polygon style="fill:gray;stroke:gray;" points="233.492,-812.529 223,-814 232.119,-819.393 233.492,-812.529"/>
</g>
<!-- t20 -->
<g id="node56" class="node"><title>t20</title>
<polygon style="fill:#90ee90;stroke:green;" points="884,-748 730,-748 726,-744 726,-712 880,-712 884,-716 884,-748"/>
<polyline style="fill:none;stroke:green;" points="880,-744 726,-744 "/>
<polyline style="fill:none;stroke:green;" points="880,-744 880,-712 "/>
<polyline style="fill:none;stroke:green;" points="880,-744 884,-748 "/>
<text text-anchor="middle" x="805" y="-723.5" style="font-family:Times New Roman;font-size:20.00;">bowtie_run_multi</text>
</g>
<!-- t18&#45;&gt;t20 -->
<g id="edge53" class="edge"><title>t18&#45;&gt;t20</title>
<path style="fill:none;stroke:gray;" d="M692,-898C701,-879 717,-852 737,-836 758,-818 778,-835 795,-814 807,-798 809,-776 809,-758"/>
<polygon style="fill:gray;stroke:gray;" points="812.478,-757.602 808,-748 805.512,-758.299 812.478,-757.602"/>
</g>
<!-- t19 -->
<g id="node58" class="node"><title>t19</title>
<polygon style="fill:#90ee90;stroke:green;" points="924,-872 750,-872 746,-868 746,-836 920,-836 924,-840 924,-872"/>
<polyline style="fill:none;stroke:green;" points="920,-868 746,-868 "/>
<polyline style="fill:none;stroke:green;" points="920,-868 920,-836 "/>
<polyline style="fill:none;stroke:green;" points="920,-868 924,-872 "/>
<text text-anchor="middle" x="835" y="-847.5" style="font-family:Times New Roman;font-size:20.00;">bowtie_run_uniques</text>
</g>
<!-- t18&#45;&gt;t19 -->
<g id="edge55" class="edge"><title>t18&#45;&gt;t19</title>
<path style="fill:none;stroke:gray;" d="M733,-898C749,-891 767,-883 783,-876"/>
<polygon style="fill:gray;stroke:gray;" points="785.015,-878.964 793,-872 782.415,-872.464 785.015,-878.964"/>
</g>
<!-- t25 -->
<g id="node30" class="node"><title>t25</title>
<polygon style="fill:#90ee90;stroke:green;" points="454.138,-736.774 333,-751.92 211.862,-736.774 211.975,-712.266 454.025,-712.266 454.138,-736.774"/>
<polygon style="fill:none;stroke:green;" points="458.138,-740.304 333,-755.951 207.862,-740.304 208.01,-708.266 457.99,-708.266 458.138,-740.304"/>
<text text-anchor="middle" x="333" y="-723.5" style="font-family:Times New Roman;font-size:20.00;">FiltoutDualRepeats</text>
</g>
<!-- t21&#45;&gt;t25 -->
<g id="edge93" class="edge"><title>t21&#45;&gt;t25</title>
<path style="fill:none;stroke:gray;" d="M196,-778C218,-770 245,-761 268,-752"/>
<polygon style="fill:gray;stroke:gray;" points="269.427,-755.226 278,-749 267.416,-748.521 269.427,-755.226"/>
</g>
<!-- t21&#45;&gt;t46 -->
<g id="edge121" class="edge"><title>t21&#45;&gt;t46</title>
<path style="fill:none;stroke:gray;" d="M91,-778C80,-772 70,-765 62,-756 34,-720 37,-701 37,-656 37,-656 37,-656 37,-216 37,-192 43,-176 125,-140 155,-126 236,-115 299,-108"/>
<polygon style="fill:gray;stroke:gray;" points="299.398,-111.478 309,-107 298.701,-104.512 299.398,-111.478"/>
</g>
<!-- t24 -->
<g id="node29" class="node"><title>t24</title>
<polygon style="fill:#90ee90;stroke:green;" points="398,-814 276,-814 272,-810 272,-778 394,-778 398,-782 398,-814"/>
<polyline style="fill:none;stroke:green;" points="394,-810 272,-810 "/>
<polyline style="fill:none;stroke:green;" points="394,-810 394,-778 "/>
<polyline style="fill:none;stroke:green;" points="394,-810 398,-814 "/>
<text text-anchor="middle" x="335" y="-789.5" style="font-family:Times New Roman;font-size:20.00;">make_replists</text>
</g>
<!-- t24&#45;&gt;t25 -->
<g id="edge27" class="edge"><title>t24&#45;&gt;t25</title>
<path style="fill:none;stroke:gray;" d="M334,-778C334,-774 334,-770 334,-766"/>
<polygon style="fill:gray;stroke:gray;" points="337.5,-766 334,-756 330.5,-766 337.5,-766"/>
</g>
<!-- t26 -->
<g id="node32" class="node"><title>t26</title>
<polygon style="fill:#90ee90;stroke:green;" points="308.068,-662.774 194,-677.92 79.932,-662.774 80.0385,-638.266 307.961,-638.266 308.068,-662.774"/>
<polygon style="fill:none;stroke:green;" points="312.066,-666.278 194,-681.955 75.9337,-666.278 76.0727,-634.266 311.927,-634.266 312.066,-666.278"/>
<text text-anchor="middle" x="194" y="-649.5" style="font-family:Times New Roman;font-size:20.00;">prepare_raw_files</text>
</g>
<!-- t25&#45;&gt;t26 -->
<g id="edge29" class="edge"><title>t25&#45;&gt;t26</title>
<path style="fill:none;stroke:gray;" d="M292,-708C277,-700 259,-691 243,-682"/>
<polygon style="fill:gray;stroke:gray;" points="244.441,-678.797 234,-677 241.042,-684.916 244.441,-678.797"/>
</g>
<!-- t34 -->
<g id="node64" class="node"><title>t34</title>
<polygon style="fill:#90ee90;stroke:green;" points="665,-674 565,-674 561,-670 561,-638 661,-638 665,-642 665,-674"/>
<polyline style="fill:none;stroke:green;" points="661,-670 561,-670 "/>
<polyline style="fill:none;stroke:green;" points="661,-670 661,-638 "/>
<polyline style="fill:none;stroke:green;" points="661,-670 665,-674 "/>
<text text-anchor="middle" x="613" y="-649.5" style="font-family:Times New Roman;font-size:20.00;">fill_islands</text>
</g>
<!-- t25&#45;&gt;t34 -->
<g id="edge61" class="edge"><title>t25&#45;&gt;t34</title>
<path style="fill:none;stroke:gray;" d="M415,-708C458,-696 511,-682 551,-672"/>
<polygon style="fill:gray;stroke:gray;" points="551.881,-675.393 561,-670 550.508,-668.529 551.881,-675.393"/>
</g>
<!-- t37 -->
<g id="node70" class="node"><title>t37</title>
<polygon style="fill:#90ee90;stroke:green;" points="794,-484 582,-484 578,-480 578,-448 790,-448 794,-452 794,-484"/>
<polyline style="fill:none;stroke:green;" points="790,-480 578,-480 "/>
<polyline style="fill:none;stroke:green;" points="790,-480 790,-448 "/>
<polyline style="fill:none;stroke:green;" points="790,-480 794,-484 "/>
<text text-anchor="middle" x="686" y="-459.5" style="font-family:Times New Roman;font-size:20.00;">Reallocate_Repeat_Ends</text>
</g>
<!-- t25&#45;&gt;t37 -->
<g id="edge107" class="edge"><title>t25&#45;&gt;t37</title>
<path style="fill:none;stroke:gray;" d="M353,-708C393,-666 486,-573 577,-514 592,-504 610,-495 626,-488"/>
<polygon style="fill:gray;stroke:gray;" points="628.015,-490.964 636,-484 625.415,-484.464 628.015,-490.964"/>
</g>
<!-- t25&#45;&gt;t46 -->
<g id="edge119" class="edge"><title>t25&#45;&gt;t46</title>
<path style="fill:none;stroke:gray;" d="M331,-708C326,-643 311,-446 311,-282 311,-282 311,-282 311,-216 311,-181 334,-147 354,-125"/>
<polygon style="fill:gray;stroke:gray;" points="356.404,-127.546 361,-118 351.454,-122.596 356.404,-127.546"/>
</g>
<!-- t27 -->
<g id="node34" class="node"><title>t27</title>
<polygon style="fill:#90ee90;stroke:green;" points="247,-608 135,-608 131,-604 131,-572 243,-572 247,-576 247,-608"/>
<polyline style="fill:none;stroke:green;" points="243,-604 131,-604 "/>
<polyline style="fill:none;stroke:green;" points="243,-604 243,-572 "/>
<polyline style="fill:none;stroke:green;" points="243,-604 247,-608 "/>
<text text-anchor="middle" x="189" y="-583.5" style="font-family:Times New Roman;font-size:20.00;">bowtie_run2</text>
</g>
<!-- t26&#45;&gt;t27 -->
<g id="edge31" class="edge"><title>t26&#45;&gt;t27</title>
<path style="fill:none;stroke:gray;" d="M192,-634C192,-629 192,-624 191,-618"/>
<polygon style="fill:gray;stroke:gray;" points="194.478,-617.602 190,-608 187.512,-618.299 194.478,-617.602"/>
</g>
<!-- t28 -->
<g id="node36" class="node"><title>t28</title>
<polygon style="fill:#90ee90;stroke:green;" points="244,-550 134,-550 130,-546 130,-514 240,-514 244,-518 244,-550"/>
<polyline style="fill:none;stroke:green;" points="240,-546 130,-546 "/>
<polyline style="fill:none;stroke:green;" points="240,-546 240,-514 "/>
<polyline style="fill:none;stroke:green;" points="240,-546 244,-550 "/>
<text text-anchor="middle" x="187" y="-525.5" style="font-family:Times New Roman;font-size:20.00;">SAM2BAM</text>
</g>
<!-- t27&#45;&gt;t28 -->
<g id="edge33" class="edge"><title>t27&#45;&gt;t28</title>
<path style="fill:none;stroke:gray;" d="M188,-572C188,-568 188,-564 188,-560"/>
<polygon style="fill:gray;stroke:gray;" points="191.5,-560 188,-550 184.5,-560 191.5,-560"/>
</g>
<!-- t29 -->
<g id="node38" class="node"><title>t29</title>
<polygon style="fill:#90ee90;stroke:green;" points="259.953,-472.774 185,-487.92 110.047,-472.774 110.117,-448.266 259.883,-448.266 259.953,-472.774"/>
<polygon style="fill:none;stroke:green;" points="263.963,-476.044 185,-492.001 106.037,-476.044 106.128,-444.266 263.872,-444.266 263.963,-476.044"/>
<text text-anchor="middle" x="185" y="-459.5" style="font-family:Times New Roman;font-size:20.00;">splitby_chr</text>
</g>
<!-- t28&#45;&gt;t29 -->
<g id="edge35" class="edge"><title>t28&#45;&gt;t29</title>
<path style="fill:none;stroke:gray;" d="M186,-514C186,-510 186,-506 186,-502"/>
<polygon style="fill:gray;stroke:gray;" points="189.5,-502 186,-492 182.5,-502 189.5,-502"/>
</g>
<!-- t30 -->
<g id="node40" class="node"><title>t30</title>
<polygon style="fill:#90ee90;stroke:green;" points="292,-392 80,-392 76,-388 76,-356 288,-356 292,-360 292,-392"/>
<polyline style="fill:none;stroke:green;" points="288,-388 76,-388 "/>
<polyline style="fill:none;stroke:green;" points="288,-388 288,-356 "/>
<polyline style="fill:none;stroke:green;" points="288,-388 292,-392 "/>
<text text-anchor="middle" x="184" y="-367.5" style="font-family:Times New Roman;font-size:20.00;">create_by_chr_raw_files</text>
</g>
<!-- t29&#45;&gt;t30 -->
<g id="edge37" class="edge"><title>t29&#45;&gt;t30</title>
<path style="fill:none;stroke:gray;" d="M185,-444C184,-431 184,-416 184,-402"/>
<polygon style="fill:gray;stroke:gray;" points="187.5,-402 184,-392 180.5,-402 187.5,-402"/>
</g>
<!-- t31 -->
<g id="node42" class="node"><title>t31</title>
<polygon style="fill:#90ee90;stroke:green;" points="270,-300 102,-300 98,-296 98,-264 266,-264 270,-268 270,-300"/>
<polyline style="fill:none;stroke:green;" points="266,-296 98,-296 "/>
<polyline style="fill:none;stroke:green;" points="266,-296 266,-264 "/>
<polyline style="fill:none;stroke:green;" points="266,-296 270,-300 "/>
<text text-anchor="middle" x="184" y="-275.5" style="font-family:Times New Roman;font-size:20.00;">run_by_chr_bowtie</text>
</g>
<!-- t30&#45;&gt;t31 -->
<g id="edge39" class="edge"><title>t30&#45;&gt;t31</title>
<path style="fill:none;stroke:gray;" d="M184,-356C184,-343 184,-325 184,-310"/>
<polygon style="fill:gray;stroke:gray;" points="187.5,-310 184,-300 180.5,-310 187.5,-310"/>
</g>
<!-- t32 -->
<g id="node44" class="node"><title>t32</title>
<polygon style="fill:#90ee90;stroke:green;" points="287,-234 85,-234 81,-230 81,-198 283,-198 287,-202 287,-234"/>
<polyline style="fill:none;stroke:green;" points="283,-230 81,-230 "/>
<polyline style="fill:none;stroke:green;" points="283,-230 283,-198 "/>
<polyline style="fill:none;stroke:green;" points="283,-230 287,-234 "/>
<text text-anchor="middle" x="184" y="-209.5" style="font-family:Times New Roman;font-size:20.00;">by_chr_SAM_to_BAM</text>
</g>
<!-- t31&#45;&gt;t32 -->
<g id="edge41" class="edge"><title>t31&#45;&gt;t32</title>
<path style="fill:none;stroke:gray;" d="M184,-264C184,-258 184,-251 184,-244"/>
<polygon style="fill:gray;stroke:gray;" points="187.5,-244 184,-234 180.5,-244 187.5,-244"/>
</g>
<!-- t33 -->
<g id="node48" class="node"><title>t33</title>
<polygon style="fill:#90ee90;stroke:green;" points="234,-176 138,-176 134,-172 134,-140 230,-140 234,-144 234,-176"/>
<polyline style="fill:none;stroke:green;" points="230,-172 134,-172 "/>
<polyline style="fill:none;stroke:green;" points="230,-172 230,-140 "/>
<polyline style="fill:none;stroke:green;" points="230,-172 234,-176 "/>
<text text-anchor="middle" x="184" y="-151.5" style="font-family:Times New Roman;font-size:20.00;">ccheckhits</text>
</g>
<!-- t32&#45;&gt;t33 -->
<g id="edge45" class="edge"><title>t32&#45;&gt;t33</title>
<path style="fill:none;stroke:gray;" d="M184,-198C184,-194 184,-190 184,-186"/>
<polygon style="fill:gray;stroke:gray;" points="187.5,-186 184,-176 180.5,-186 187.5,-186"/>
</g>
<!-- t2&#45;&gt;t33 -->
<g id="edge95" class="edge"><title>t2&#45;&gt;t33</title>
<path style="fill:none;stroke:gray;" d="M416,-779C413,-779 410,-778 407,-778 244,-755 57,-820 57,-656 57,-656 57,-656 57,-282 57,-244 48,-226 72,-198 80,-189 102,-181 124,-173"/>
<polygon style="fill:gray;stroke:gray;" points="125.427,-176.226 134,-170 123.416,-169.521 125.427,-176.226"/>
</g>
<!-- t23 -->
<g id="node62" class="node"><title>t23</title>
<polygon style="fill:#90ee90;stroke:green;" points="697,-748 533,-748 529,-744 529,-712 693,-712 697,-716 697,-748"/>
<polyline style="fill:none;stroke:green;" points="693,-744 529,-744 "/>
<polyline style="fill:none;stroke:green;" points="693,-744 693,-712 "/>
<polyline style="fill:none;stroke:green;" points="693,-744 697,-748 "/>
<text text-anchor="middle" x="613" y="-723.5" style="font-family:Times New Roman;font-size:20.00;">create_island_seed</text>
</g>
<!-- t2&#45;&gt;t23 -->
<g id="edge99" class="edge"><title>t2&#45;&gt;t23</title>
<path style="fill:none;stroke:gray;" d="M540,-778C551,-771 564,-762 576,-754"/>
<polygon style="fill:gray;stroke:gray;" points="578.621,-756.459 585,-748 574.738,-750.635 578.621,-756.459"/>
</g>
<!-- t38 -->
<g id="node76" class="node"><title>t38</title>
<polygon style="fill:#90ee90;stroke:green;" points="333.879,-361.794 485,-334.5 636.121,-361.794 635.98,-405.956 334.02,-405.956 333.879,-361.794"/>
<polygon style="fill:none;stroke:green;" points="329.868,-358.453 485,-330.435 640.132,-358.453 639.967,-409.956 330.033,-409.956 329.868,-358.453"/>
<text text-anchor="middle" x="485" y="-367.5" style="font-family:Times New Roman;font-size:20.00;">make_karyotype_file_for_circos</text>
</g>
<!-- t2&#45;&gt;t38 -->
<g id="edge113" class="edge"><title>t2&#45;&gt;t38</title>
<path style="fill:none;stroke:gray;" d="M512,-778C507,-716 494,-513 488,-420"/>
<polygon style="fill:gray;stroke:gray;" points="491.478,-419.602 487,-410 484.512,-420.299 491.478,-419.602"/>
</g>
<!-- t33&#45;&gt;t46 -->
<g id="edge117" class="edge"><title>t33&#45;&gt;t46</title>
<path style="fill:none;stroke:gray;" d="M234,-143C257,-136 285,-128 309,-121"/>
<polygon style="fill:gray;stroke:gray;" points="310.427,-124.226 319,-118 308.416,-117.521 310.427,-124.226"/>
</g>
<!-- t44 -->
<g id="node52" class="node"><title>t44</title>
<polygon style="fill:#90ee90;stroke:green;" points="147,-1368 49,-1368 45,-1364 45,-1332 143,-1332 147,-1336 147,-1368"/>
<polyline style="fill:none;stroke:green;" points="143,-1364 45,-1364 "/>
<polyline style="fill:none;stroke:green;" points="143,-1364 143,-1332 "/>
<polyline style="fill:none;stroke:green;" points="143,-1364 147,-1368 "/>
<text text-anchor="middle" x="96" y="-1343.5" style="font-family:Times New Roman;font-size:20.00;">velvet_run</text>
</g>
<!-- t43&#45;&gt;t44 -->
<g id="edge49" class="edge"><title>t43&#45;&gt;t44</title>
<path style="fill:none;stroke:gray;" d="M116,-1390C114,-1386 111,-1382 109,-1377"/>
<polygon style="fill:gray;stroke:gray;" points="112.26,-1375.72 105,-1368 105.863,-1378.56 112.26,-1375.72"/>
</g>
<!-- t45 -->
<g id="node54" class="node"><title>t45</title>
<polygon style="fill:#90ee90;stroke:green;" points="112,-1178 20,-1178 16,-1174 16,-1142 108,-1142 112,-1146 112,-1178"/>
<polyline style="fill:none;stroke:green;" points="108,-1174 16,-1174 "/>
<polyline style="fill:none;stroke:green;" points="108,-1174 108,-1142 "/>
<polyline style="fill:none;stroke:green;" points="108,-1174 112,-1178 "/>
<text text-anchor="middle" x="64" y="-1153.5" style="font-family:Times New Roman;font-size:20.00;">oases_run</text>
</g>
<!-- t44&#45;&gt;t45 -->
<g id="edge51" class="edge"><title>t44&#45;&gt;t45</title>
<path style="fill:none;stroke:gray;" d="M93,-1332C88,-1298 75,-1227 69,-1188"/>
<polygon style="fill:gray;stroke:gray;" points="72.3933,-1187.12 67,-1178 65.5292,-1188.49 72.3933,-1187.12"/>
</g>
<!-- t45&#45;&gt;t46 -->
<g id="edge79" class="edge"><title>t45&#45;&gt;t46</title>
<path style="fill:none;stroke:gray;" d="M52,-1142C38,-1120 17,-1081 17,-1044 17,-1044 17,-1044 17,-216 17,-178 24,-161 54,-140 74,-126 208,-113 299,-106"/>
<polygon style="fill:gray;stroke:gray;" points="299.398,-109.478 309,-105 298.701,-102.512 299.398,-109.478"/>
</g>
<!-- t20&#45;&gt;t34 -->
<g id="edge103" class="edge"><title>t20&#45;&gt;t34</title>
<path style="fill:none;stroke:gray;" d="M758,-712C731,-701 698,-689 669,-678"/>
<polygon style="fill:gray;stroke:gray;" points="670.56,-674.863 660,-674 667.717,-681.26 670.56,-674.863"/>
</g>
<!-- t20&#45;&gt;t46 -->
<g id="edge123" class="edge"><title>t20&#45;&gt;t46</title>
<path style="fill:none;stroke:gray;" d="M829,-712C858,-687 903,-641 903,-590 903,-590 903,-590 903,-216 903,-171 608,-128 461,-109"/>
<polygon style="fill:gray;stroke:gray;" points="461.299,-105.512 451,-108 460.602,-112.478 461.299,-105.512"/>
</g>
<!-- t19&#45;&gt;t22 -->
<g id="edge57" class="edge"><title>t19&#45;&gt;t22</title>
<path style="fill:none;stroke:gray;" d="M795,-836C783,-830 769,-824 756,-818"/>
<polygon style="fill:gray;stroke:gray;" points="757.56,-814.863 747,-814 754.717,-821.26 757.56,-814.863"/>
</g>
<!-- t19&#45;&gt;t46 -->
<g id="edge125" class="edge"><title>t19&#45;&gt;t46</title>
<path style="fill:none;stroke:gray;" d="M859,-836C885,-814 923,-774 923,-730 923,-730 923,-730 923,-216 923,-158 995,-197 760,-140 706,-126 556,-113 461,-106"/>
<polygon style="fill:gray;stroke:gray;" points="461.299,-102.512 451,-105 460.602,-109.478 461.299,-102.512"/>
</g>
<!-- t22&#45;&gt;t23 -->
<g id="edge59" class="edge"><title>t22&#45;&gt;t23</title>
<path style="fill:none;stroke:gray;" d="M681,-778C671,-771 658,-762 647,-754"/>
<polygon style="fill:gray;stroke:gray;" points="649.1,-751.2 639,-748 644.9,-756.8 649.1,-751.2"/>
</g>
<!-- t23&#45;&gt;t34 -->
<g id="edge101" class="edge"><title>t23&#45;&gt;t34</title>
<path style="fill:none;stroke:gray;" d="M613,-712C613,-703 613,-694 613,-684"/>
<polygon style="fill:gray;stroke:gray;" points="616.5,-684 613,-674 609.5,-684 616.5,-684"/>
</g>
<!-- t35 -->
<g id="node66" class="node"><title>t35</title>
<polygon style="fill:#90ee90;stroke:green;" points="864,-608 602,-608 598,-604 598,-572 860,-572 864,-576 864,-608"/>
<polyline style="fill:none;stroke:green;" points="860,-604 598,-604 "/>
<polyline style="fill:none;stroke:green;" points="860,-604 860,-572 "/>
<polyline style="fill:none;stroke:green;" points="860,-604 864,-608 "/>
<text text-anchor="middle" x="731" y="-583.5" style="font-family:Times New Roman;font-size:20.00;">make_fasta_for_RepeatMasker</text>
</g>
<!-- t34&#45;&gt;t35 -->
<g id="edge63" class="edge"><title>t34&#45;&gt;t35</title>
<path style="fill:none;stroke:gray;" d="M645,-638C659,-631 675,-621 689,-613"/>
<polygon style="fill:gray;stroke:gray;" points="690.958,-615.916 698,-608 687.559,-609.797 690.958,-615.916"/>
</g>
<!-- t34&#45;&gt;t37 -->
<g id="edge105" class="edge"><title>t34&#45;&gt;t37</title>
<path style="fill:none;stroke:gray;" d="M602,-638C597,-629 592,-618 589,-608 580,-567 571,-548 593,-514 600,-504 610,-496 620,-489"/>
<polygon style="fill:gray;stroke:gray;" points="621.958,-491.916 629,-484 618.559,-485.797 621.958,-491.916"/>
</g>
<!-- t39 -->
<g id="node72" class="node"><title>t39</title>
<polygon style="fill:none;stroke:blue;" points="884,-392 682,-392 678,-388 678,-356 880,-356 884,-360 884,-392"/>
<polyline style="fill:none;stroke:blue;" points="880,-388 678,-388 "/>
<polyline style="fill:none;stroke:blue;" points="880,-388 880,-356 "/>
<polyline style="fill:none;stroke:blue;" points="880,-388 884,-392 "/>
<text text-anchor="middle" x="781" y="-367.5" style="font-family:Times New Roman;font-size:20.00;fill:blue;">remove_simple_repeats</text>
</g>
<!-- t34&#45;&gt;t39 -->
<g id="edge109" class="edge"><title>t34&#45;&gt;t39</title>
<path style="fill:none;stroke:gray;" d="M665,-654C733,-650 847,-639 873,-608 926,-544 849,-445 806,-399"/>
<polygon style="fill:gray;stroke:gray;" points="808.546,-396.596 799,-392 803.596,-401.546 808.546,-396.596"/>
</g>
<!-- t40 -->
<g id="node74" class="node"><title>t40</title>
<polygon style="fill:none;stroke:blue;" points="750.217,-288.774 659,-303.92 567.783,-288.774 567.868,-264.266 750.132,-264.266 750.217,-288.774"/>
<polygon style="fill:none;stroke:blue;" points="754.229,-292.162 659,-307.975 563.771,-292.162 563.882,-260.266 754.118,-260.266 754.229,-292.162"/>
<text text-anchor="middle" x="659" y="-275.5" style="font-family:Times New Roman;font-size:20.00;fill:blue;">report_islands</text>
</g>
<!-- t34&#45;&gt;t40 -->
<g id="edge111" class="edge"><title>t34&#45;&gt;t40</title>
<path style="fill:none;stroke:gray;" d="M597,-638C590,-629 583,-619 579,-608 554,-537 524,-499 569,-440 592,-410 626,-446 649,-418 662,-403 662,-353 661,-318"/>
<polygon style="fill:gray;stroke:gray;" points="664.5,-318 661,-308 657.5,-318 664.5,-318"/>
</g>
<!-- t36 -->
<g id="node68" class="node"><title>t36</title>
<polygon style="fill:#90ee90;stroke:green;" points="852,-550 606,-550 602,-546 602,-514 848,-514 852,-518 852,-550"/>
<polyline style="fill:none;stroke:green;" points="848,-546 602,-546 "/>
<polyline style="fill:none;stroke:green;" points="848,-546 848,-514 "/>
<polyline style="fill:none;stroke:green;" points="848,-546 852,-550 "/>
<text text-anchor="middle" x="727" y="-525.5" style="font-family:Times New Roman;font-size:20.00;">run_RepeatMasker_on_reads</text>
</g>
<!-- t35&#45;&gt;t36 -->
<g id="edge65" class="edge"><title>t35&#45;&gt;t36</title>
<path style="fill:none;stroke:gray;" d="M730,-572C730,-568 730,-564 729,-560"/>
<polygon style="fill:gray;stroke:gray;" points="732.478,-559.602 728,-550 725.512,-560.299 732.478,-559.602"/>
</g>
<!-- t36&#45;&gt;t37 -->
<g id="edge67" class="edge"><title>t36&#45;&gt;t37</title>
<path style="fill:none;stroke:gray;" d="M716,-514C712,-508 707,-500 703,-493"/>
<polygon style="fill:gray;stroke:gray;" points="705.916,-491.042 698,-484 699.797,-494.441 705.916,-491.042"/>
</g>
<!-- t37&#45;&gt;t39 -->
<g id="edge69" class="edge"><title>t37&#45;&gt;t39</title>
<path style="fill:none;stroke:gray;" d="M705,-448C719,-434 738,-415 754,-399"/>
<polygon style="fill:gray;stroke:gray;" points="756.779,-401.219 762,-392 752.169,-395.951 756.779,-401.219"/>
</g>
<!-- t37&#45;&gt;t38 -->
<g id="edge73" class="edge"><title>t37&#45;&gt;t38</title>
<path style="fill:none;stroke:gray;" d="M646,-448C626,-438 599,-426 573,-414"/>
<polygon style="fill:gray;stroke:gray;" points="574.56,-410.863 564,-410 571.717,-417.26 574.56,-410.863"/>
</g>
<!-- t39&#45;&gt;t40 -->
<g id="edge71" class="edge"><title>t39&#45;&gt;t40</title>
<path style="fill:none;stroke:blue;" d="M757,-356C739,-343 715,-324 695,-309"/>
<polygon style="fill:blue;stroke:blue;" points="697.1,-306.2 687,-303 692.9,-311.8 697.1,-306.2"/>
</g>
<!-- t41 -->
<g id="node78" class="node"><title>t41</title>
<polygon style="fill:none;stroke:blue;" points="585,-234 389,-234 385,-230 385,-198 581,-198 585,-202 585,-234"/>
<polyline style="fill:none;stroke:blue;" points="581,-230 385,-230 "/>
<polyline style="fill:none;stroke:blue;" points="581,-230 581,-198 "/>
<polyline style="fill:none;stroke:blue;" points="581,-230 585,-234 "/>
<text text-anchor="middle" x="485" y="-209.5" style="font-family:Times New Roman;font-size:20.00;fill:blue;">make_circos_conf_file</text>
</g>
<!-- t40&#45;&gt;t41 -->
<g id="edge75" class="edge"><title>t40&#45;&gt;t41</title>
<path style="fill:none;stroke:blue;" d="M602,-260C583,-253 561,-245 542,-238"/>
<polygon style="fill:blue;stroke:blue;" points="543.56,-234.863 533,-234 540.717,-241.26 543.56,-234.863"/>
</g>
<!-- t38&#45;&gt;t41 -->
<g id="edge115" class="edge"><title>t38&#45;&gt;t41</title>
<path style="fill:none;stroke:gray;" d="M485,-330C485,-303 485,-268 485,-244"/>
<polygon style="fill:gray;stroke:gray;" points="488.5,-244 485,-234 481.5,-244 488.5,-244"/>
</g>
<!-- t42 -->
<g id="node80" class="node"><title>t42</title>
<polygon style="fill:none;stroke:blue;stroke-dasharray:5,2;" points="531,-176 371,-176 367,-172 367,-140 527,-140 531,-144 531,-176"/>
<polyline style="fill:none;stroke:blue;stroke-dasharray:5,2;" points="527,-172 367,-172 "/>
<polyline style="fill:none;stroke:blue;stroke-dasharray:5,2;" points="527,-172 527,-140 "/>
<polyline style="fill:none;stroke:blue;stroke-dasharray:5,2;" points="527,-172 531,-176 "/>
<text text-anchor="middle" x="449" y="-151.5" style="font-family:Times New Roman;font-size:20.00;fill:blue;">run_circos_islands</text>
</g>
<!-- t41&#45;&gt;t42 -->
<g id="edge77" class="edge"><title>t41&#45;&gt;t42</title>
<path style="fill:none;stroke:blue;" d="M474,-198C472,-194 469,-189 466,-185"/>
<polygon style="fill:blue;stroke:blue;" points="468.459,-182.379 460,-176 462.635,-186.262 468.459,-182.379"/>
</g>
<!-- t42&#45;&gt;t46 -->
<g id="edge81" class="edge"><title>t42&#45;&gt;t46</title>
<path style="fill:none;stroke:blue;" d="M428,-140C422,-135 416,-130 410,-125"/>
<polygon style="fill:blue;stroke:blue;" points="411.831,-121.951 402,-118 407.221,-127.219 411.831,-121.951"/>
</g>
<!-- t47 -->
<g id="node85" class="node"><title>t47</title>
<polygon style="fill:#fff68f;stroke:black;" points="456,-60 308,-60 304,-56 304,-24 452,-24 456,-28 456,-60"/>
<polyline style="fill:none;stroke:black;" points="452,-56 304,-56 "/>
<polyline style="fill:none;stroke:black;" points="452,-56 452,-24 "/>
<polyline style="fill:none;stroke:black;" points="452,-56 456,-60 "/>
<text text-anchor="middle" x="380" y="-35.5" style="font-family:Times New Roman;font-size:20.00;">target_final_task</text>
</g>
<!-- t46&#45;&gt;t47 -->
<g id="edge83" class="edge"><title>t46&#45;&gt;t47</title>
<path style="fill:none;stroke:blue;" d="M380,-82C380,-78 380,-74 380,-70"/>
<polygon style="fill:blue;stroke:blue;" points="383.5,-70 380,-60 376.5,-70 383.5,-70"/>
</g>
</g>
</svg>
