<?xml version="1.0" encoding="UTF-8" standalone="no"?>
<!DOCTYPE svg PUBLIC "-//W3C//DTD SVG 1.0//EN"
 "http://www.w3.org/TR/2001/REC-SVG-20010904/DTD/svg10.dtd" [
 <!ATTLIST svg xmlns:xlink CDATA #FIXED "http://www.w3.org/1999/xlink">
]>
<!-- Generated by Graphviz version 2.20.2 (Mon Aug &#160;4 08:59:22 UTC 2008)
     For user: Andreas Heger -->
<!-- Title: tree Pages: 1 -->
<svg width="864pt" height="420pt"
 viewBox="0.00 0.00 432.00 203.22" xmlns="http://www.w3.org/2000/svg" xmlns:xlink="http://www.w3.org/1999/xlink">
<g id="graph0" class="graph" transform="scale(0.311688 0.311688) rotate(0) translate(4 648)">
<title>SNP Annotation Pipeline</title>
<polygon style="fill:white;stroke:white;" points="-4,4 -4,-648 1382,-648 1382,4 -4,4"/>
<g id="cluster2" class="cluster"><title>clustertasks</title>
<polygon style="fill:none;stroke:black;" points="8,-16 8,-628 1194,-628 1194,-16 8,-16"/>
<text text-anchor="middle" x="601" y="-597" style="font-family:Times New Roman;font-size:20.00pt;fill:red;"><tspan font-weight = "bold">SNP Annotation Pipeline:</tspan></text>
</g>
<g id="cluster3" class="cluster"><title>clusterkey</title>
<polygon style="fill:#e5e5e5;stroke:#e5e5e5;" points="1202,-324 1202,-636 1370,-636 1370,-324 1202,-324"/>
<text text-anchor="middle" x="1286" y="-605" style="font-family:Times New Roman;font-size:30.00;">Key:</text>
</g>
<!-- t8 -->
<g id="node2" class="node"><title>t8</title>
<polygon style="fill:#90ee90;stroke:green;" points="804,-486 662,-486 658,-482 658,-450 800,-450 804,-454 804,-486"/>
<polyline style="fill:none;stroke:green;" points="800,-482 658,-482 "/>
<polyline style="fill:none;stroke:green;" points="800,-482 800,-450 "/>
<polyline style="fill:none;stroke:green;" points="800,-482 804,-486 "/>
<text text-anchor="middle" x="731" y="-461.5" style="font-family:Times New Roman;font-size:20.00;">buildTranscripts</text>
</g>
<!-- t9 -->
<g id="node3" class="node"><title>t9</title>
<polygon style="fill:#90ee90;stroke:green;" points="812,-376 676,-376 672,-372 672,-340 808,-340 812,-344 812,-376"/>
<polyline style="fill:none;stroke:green;" points="808,-372 672,-372 "/>
<polyline style="fill:none;stroke:green;" points="808,-372 808,-340 "/>
<polyline style="fill:none;stroke:green;" points="808,-372 812,-376 "/>
<text text-anchor="middle" x="742" y="-351.5" style="font-family:Times New Roman;font-size:20.00;">loadTranscripts</text>
</g>
<!-- t8&#45;&gt;t9 -->
<g id="edge3" class="edge"><title>t8&#45;&gt;t9</title>
<path style="fill:none;stroke:gray;" d="M733,-450C735,-433 737,-407 739,-386"/>
<polygon style="fill:gray;stroke:gray;" points="742.488,-386.299 740,-376 735.522,-385.602 742.488,-386.299"/>
</g>
<!-- t27 -->
<g id="node41" class="node"><title>t27</title>
<polygon style="fill:#90ee90;stroke:green;" points="654,-376 544,-376 540,-372 540,-340 650,-340 654,-344 654,-376"/>
<polyline style="fill:none;stroke:green;" points="650,-372 540,-372 "/>
<polyline style="fill:none;stroke:green;" points="650,-372 650,-340 "/>
<polyline style="fill:none;stroke:green;" points="650,-372 654,-376 "/>
<text text-anchor="middle" x="597" y="-351.5" style="font-family:Times New Roman;font-size:20.00;">buildAlleles</text>
</g>
<!-- t8&#45;&gt;t27 -->
<g id="edge69" class="edge"><title>t8&#45;&gt;t27</title>
<path style="fill:none;stroke:gray;" d="M709,-450C686,-432 652,-403 627,-382"/>
<polygon style="fill:gray;stroke:gray;" points="629.1,-379.2 619,-376 624.9,-384.8 629.1,-379.2"/>
</g>
<!-- t64 -->
<g id="node12" class="node"><title>t64</title>
<polygon style="fill:none;stroke:blue;" points="906,-292 834,-292 830,-288 830,-256 902,-256 906,-260 906,-292"/>
<polyline style="fill:none;stroke:blue;" points="902,-288 830,-288 "/>
<polyline style="fill:none;stroke:blue;" points="902,-288 902,-256 "/>
<polyline style="fill:none;stroke:blue;" points="902,-288 906,-292 "/>
<text text-anchor="middle" x="868" y="-267.5" style="font-family:Times New Roman;font-size:20.00;fill:blue;">prepare</text>
</g>
<!-- t9&#45;&gt;t64 -->
<g id="edge53" class="edge"><title>t9&#45;&gt;t64</title>
<path style="fill:none;stroke:gray;" d="M769,-340C787,-328 812,-311 832,-298"/>
<polygon style="fill:gray;stroke:gray;" points="834.621,-300.459 841,-292 830.738,-294.635 834.621,-300.459"/>
</g>
<!-- t11 -->
<g id="node5" class="node"><title>t11</title>
<polygon style="fill:#90ee90;stroke:green;" points="854,-578 632,-578 628,-574 628,-542 850,-542 854,-546 854,-578"/>
<polyline style="fill:none;stroke:green;" points="850,-574 628,-574 "/>
<polyline style="fill:none;stroke:green;" points="850,-574 850,-542 "/>
<polyline style="fill:none;stroke:green;" points="850,-574 854,-578 "/>
<text text-anchor="middle" x="741" y="-553.5" style="font-family:Times New Roman;font-size:20.00;">loadTranscriptInformation</text>
</g>
<!-- t11&#45;&gt;t64 -->
<g id="edge9" class="edge"><title>t11&#45;&gt;t64</title>
<path style="fill:none;stroke:gray;" d="M780,-542C793,-534 805,-524 813,-512 861,-436 810,-396 841,-314 843,-309 845,-305 848,-301"/>
<polygon style="fill:gray;stroke:gray;" points="851.203,-302.441 853,-292 845.084,-299.042 851.203,-302.441"/>
</g>
<!-- t16 -->
<g id="node15" class="node"><title>t16</title>
<polygon style="fill:#90ee90;stroke:green;" points="476.809,-455.794 554,-428.5 631.191,-455.794 631.119,-499.956 476.881,-499.956 476.809,-455.794"/>
<polygon style="fill:none;stroke:green;" points="472.804,-452.967 554,-424.257 635.196,-452.967 635.113,-503.956 472.887,-503.956 472.804,-452.967"/>
<text text-anchor="middle" x="554" y="-461.5" style="font-family:Times New Roman;font-size:20.00;">buildSelenoList</text>
</g>
<!-- t11&#45;&gt;t16 -->
<g id="edge59" class="edge"><title>t11&#45;&gt;t16</title>
<path style="fill:none;stroke:gray;" d="M704,-542C684,-532 660,-520 636,-508"/>
<polygon style="fill:gray;stroke:gray;" points="637.56,-504.863 627,-504 634.717,-511.26 637.56,-504.863"/>
</g>
<!-- t4 -->
<g id="node6" class="node"><title>t4</title>
<polygon style="fill:#90ee90;stroke:green;" points="1034,-578 876,-578 872,-574 872,-542 1030,-542 1034,-546 1034,-578"/>
<polyline style="fill:none;stroke:green;" points="1030,-574 872,-574 "/>
<polyline style="fill:none;stroke:green;" points="1030,-574 1030,-542 "/>
<polyline style="fill:none;stroke:green;" points="1030,-574 1034,-578 "/>
<text text-anchor="middle" x="953" y="-553.5" style="font-family:Times New Roman;font-size:20.00;">buildGeneRegions</text>
</g>
<!-- t5 -->
<g id="node7" class="node"><title>t5</title>
<polygon style="fill:#90ee90;stroke:green;" points="973,-486 871,-486 867,-482 867,-450 969,-450 973,-454 973,-486"/>
<polyline style="fill:none;stroke:green;" points="969,-482 867,-482 "/>
<polyline style="fill:none;stroke:green;" points="969,-482 969,-450 "/>
<polyline style="fill:none;stroke:green;" points="969,-482 973,-486 "/>
<text text-anchor="middle" x="920" y="-461.5" style="font-family:Times New Roman;font-size:20.00;">buildGenes</text>
</g>
<!-- t4&#45;&gt;t5 -->
<g id="edge5" class="edge"><title>t4&#45;&gt;t5</title>
<path style="fill:none;stroke:gray;" d="M946,-542C942,-529 935,-511 930,-496"/>
<polygon style="fill:gray;stroke:gray;" points="933.226,-494.573 927,-486 926.521,-496.584 933.226,-494.573"/>
</g>
<!-- t7 -->
<g id="node9" class="node"><title>t7</title>
<polygon style="fill:#90ee90;stroke:green;" points="982,-376 854,-376 850,-372 850,-340 978,-340 982,-344 982,-376"/>
<polyline style="fill:none;stroke:green;" points="978,-372 850,-372 "/>
<polyline style="fill:none;stroke:green;" points="978,-372 978,-340 "/>
<polyline style="fill:none;stroke:green;" points="978,-372 982,-376 "/>
<text text-anchor="middle" x="916" y="-351.5" style="font-family:Times New Roman;font-size:20.00;">loadGeneStats</text>
</g>
<!-- t5&#45;&gt;t7 -->
<g id="edge7" class="edge"><title>t5&#45;&gt;t7</title>
<path style="fill:none;stroke:gray;" d="M919,-450C918,-433 917,-407 917,-386"/>
<polygon style="fill:gray;stroke:gray;" points="920.5,-386 917,-376 913.5,-386 920.5,-386"/>
</g>
<!-- t7&#45;&gt;t64 -->
<g id="edge55" class="edge"><title>t7&#45;&gt;t64</title>
<path style="fill:none;stroke:gray;" d="M906,-340C899,-329 890,-314 883,-301"/>
<polygon style="fill:gray;stroke:gray;" points="885.916,-299.042 878,-292 879.797,-302.441 885.916,-299.042"/>
</g>
<!-- t6 -->
<g id="node11" class="node"><title>t6</title>
<polygon style="fill:#90ee90;stroke:green;" points="1186,-376 1004,-376 1000,-372 1000,-340 1182,-340 1186,-344 1186,-376"/>
<polyline style="fill:none;stroke:green;" points="1182,-372 1000,-372 "/>
<polyline style="fill:none;stroke:green;" points="1182,-372 1182,-340 "/>
<polyline style="fill:none;stroke:green;" points="1182,-372 1186,-376 "/>
<text text-anchor="middle" x="1093" y="-351.5" style="font-family:Times New Roman;font-size:20.00;">loadGeneInformation</text>
</g>
<!-- t6&#45;&gt;t64 -->
<g id="edge57" class="edge"><title>t6&#45;&gt;t64</title>
<path style="fill:none;stroke:gray;" d="M1054,-340C1035,-331 1012,-322 991,-314 966,-304 939,-295 916,-288"/>
<polygon style="fill:gray;stroke:gray;" points="916.584,-284.521 906,-285 914.573,-291.226 916.584,-284.521"/>
</g>
<!-- t68 -->
<g id="node51" class="node"><title>t68</title>
<polygon style="fill:#fff68f;stroke:black;" points="587,-60 537,-60 533,-56 533,-24 583,-24 587,-28 587,-60"/>
<polyline style="fill:none;stroke:black;"   points="583,-56 533,-56 "/>
<polyline style="fill:none;stroke:black;"   points="583,-56 583,-24 "/>
<polyline style="fill:none;stroke:black;"   points="583,-56 587,-60 "/>
<text text-anchor="middle" x="560" y="-35.5" style="font-family:Times New Roman;font-size:20.00;">full</text>
</g>
<!-- t64&#45;&gt;t68 -->
<g id="edge51" class="edge"><title>t64&#45;&gt;t68</title>
<path style="fill:none;stroke:blue;" d="M862,-256C852,-228 829,-174 793,-140 738,-86 648,-59 597,-49"/>
<polygon style="fill:blue;stroke:blue;" points="597.492,-45.5292 587,-47 596.119,-52.3933 597.492,-45.5292"/>
</g>
<!-- t15 -->
<g id="node14" class="node"><title>t15</title>
<polygon style="fill:#90ee90;stroke:green;" points="610,-578 468,-578 464,-574 464,-542 606,-542 610,-546 610,-578"/>
<polyline style="fill:none;stroke:green;" points="606,-574 464,-574 "/>
<polyline style="fill:none;stroke:green;" points="606,-574 606,-542 "/>
<polyline style="fill:none;stroke:green;" points="606,-574 610,-578 "/>
<text text-anchor="middle" x="537" y="-553.5" style="font-family:Times New Roman;font-size:20.00;">loadProteinStats</text>
</g>
<!-- t15&#45;&gt;t16 -->
<g id="edge11" class="edge"><title>t15&#45;&gt;t16</title>
<path style="fill:none;stroke:gray;" d="M540,-542C541,-534 544,-524 545,-514"/>
<polygon style="fill:gray;stroke:gray;" points="548.471,-514.492 547,-504 541.607,-513.119 548.471,-514.492"/>
</g>
<!-- t25 -->
<g id="node17" class="node"><title>t25</title>
<polygon style="fill:#90ee90;stroke:green;" points="522,-376 410,-376 406,-372 406,-340 518,-340 522,-344 522,-376"/>
<polyline style="fill:none;stroke:green;" points="518,-372 406,-372 "/>
<polyline style="fill:none;stroke:green;" points="518,-372 518,-340 "/>
<polyline style="fill:none;stroke:green;" points="518,-372 522,-376 "/>
<text text-anchor="middle" x="464" y="-351.5" style="font-family:Times New Roman;font-size:20.00;">makeEffects</text>
</g>
<!-- t16&#45;&gt;t25 -->
<g id="edge13" class="edge"><title>t16&#45;&gt;t25</title>
<path style="fill:none;stroke:gray;" d="M526,-434C513,-418 498,-399 485,-384"/>
<polygon style="fill:gray;stroke:gray;" points="487.8,-381.9 479,-376 482.2,-386.1 487.8,-381.9"/>
</g>
<!-- t16&#45;&gt;t27 -->
<g id="edge35" class="edge"><title>t16&#45;&gt;t27</title>
<path style="fill:none;stroke:gray;" d="M569,-430C575,-416 581,-399 586,-385"/>
<polygon style="fill:gray;stroke:gray;" points="589.137,-386.56 590,-376 582.74,-383.717 589.137,-386.56"/>
</g>
<!-- t26 -->
<g id="node19" class="node"><title>t26</title>
<polygon style="fill:#90ee90;stroke:green;" points="554,-292 450,-292 446,-288 446,-256 550,-256 554,-260 554,-292"/>
<polyline style="fill:none;stroke:green;" points="550,-288 446,-288 "/>
<polyline style="fill:none;stroke:green;" points="550,-288 550,-256 "/>
<polyline style="fill:none;stroke:green;" points="550,-288 554,-292 "/>
<text text-anchor="middle" x="500" y="-267.5" style="font-family:Times New Roman;font-size:20.00;">loadEffects</text>
</g>
<!-- t25&#45;&gt;t26 -->
<g id="edge15" class="edge"><title>t25&#45;&gt;t26</title>
<path style="fill:none;stroke:gray;" d="M472,-340C477,-329 483,-314 488,-302"/>
<polygon style="fill:gray;stroke:gray;" points="491.536,-302.585 492,-292 485.036,-299.985 491.536,-302.585"/>
</g>
<!-- t65 -->
<g id="node21" class="node"><title>t65</title>
<polygon style="fill:none;stroke:blue;" points="486,-234 366,-234 362,-230 362,-198 482,-198 486,-202 486,-234"/>
<polyline style="fill:none;stroke:blue;" points="482,-230 362,-230 "/>
<polyline style="fill:none;stroke:blue;" points="482,-230 482,-198 "/>
<polyline style="fill:none;stroke:blue;" points="482,-230 486,-234 "/>
<text text-anchor="middle" x="424" y="-209.5" style="font-family:Times New Roman;font-size:20.00;fill:blue;">consequences</text>
</g>
<!-- t25&#45;&gt;t65 -->
<g id="edge61" class="edge"><title>t25&#45;&gt;t65</title>
<path style="fill:none;stroke:gray;" d="M455,-340C450,-327 442,-308 437,-292 433,-277 430,-259 427,-244"/>
<polygon style="fill:gray;stroke:gray;" points="430.478,-243.602 426,-234 423.512,-244.299 430.478,-243.602"/>
</g>
<!-- t26&#45;&gt;t65 -->
<g id="edge17" class="edge"><title>t26&#45;&gt;t65</title>
<path style="fill:none;stroke:gray;" d="M476,-256C470,-251 463,-246 456,-240"/>
<polygon style="fill:gray;stroke:gray;" points="458.1,-237.2 448,-234 453.9,-242.8 458.1,-237.2"/>
</g>
<!-- t65&#45;&gt;t68 -->
<g id="edge49" class="edge"><title>t65&#45;&gt;t68</title>
<path style="fill:none;stroke:blue;" d="M445,-198C452,-191 460,-183 466,-176 497,-141 526,-96 544,-69"/>
<polygon style="fill:blue;stroke:blue;" points="547.203,-70.4414 549,-60 541.084,-67.0418 547.203,-70.4414"/>
</g>
<!-- t49 -->
<g id="node23" class="node"><title>t49</title>
<polygon style="fill:#90ee90;stroke:green;" points="19.9571,-345.794 114,-318.5 208.043,-345.794 207.955,-389.956 20.0448,-389.956 19.9571,-345.794"/>
<polygon style="fill:none;stroke:green;" points="15.9511,-342.791 114,-314.335 212.049,-342.791 211.947,-393.956 16.0528,-393.956 15.9511,-342.791"/>
<text text-anchor="middle" x="114" y="-351.5" style="font-family:Times New Roman;font-size:20.00;">buildPolyphenInput</text>
</g>
<!-- t50 -->
<g id="node24" class="node"><title>t50</title>
<polygon style="fill:#90ee90;stroke:green;" points="214,-292 20,-292 16,-288 16,-256 210,-256 214,-260 214,-292"/>
<polyline style="fill:none;stroke:green;" points="210,-288 16,-288 "/>
<polyline style="fill:none;stroke:green;" points="210,-288 210,-256 "/>
<polyline style="fill:none;stroke:green;" points="210,-288 214,-292 "/>
<text text-anchor="middle" x="115" y="-267.5" style="font-family:Times New Roman;font-size:20.00;">buildPolyphenFeatures</text>
</g>
<!-- t49&#45;&gt;t50 -->
<g id="edge19" class="edge"><title>t49&#45;&gt;t50</title>
<path style="fill:none;stroke:gray;" d="M115,-314C115,-310 115,-306 115,-302"/>
<polygon style="fill:gray;stroke:gray;" points="118.5,-302 115,-292 111.5,-302 118.5,-302"/>
</g>
<!-- t52 -->
<g id="node30" class="node"><title>t52</title>
<polygon style="fill:#90ee90;stroke:green;" points="457,-176 301,-176 297,-172 297,-140 453,-140 457,-144 457,-176"/>
<polyline style="fill:none;stroke:green;" points="453,-172 297,-172 "/>
<polyline style="fill:none;stroke:green;" points="453,-172 453,-140 "/>
<polyline style="fill:none;stroke:green;" points="453,-172 457,-176 "/>
<text text-anchor="middle" x="377" y="-151.5" style="font-family:Times New Roman;font-size:20.00;">loadPolyphenMap</text>
</g>
<!-- t49&#45;&gt;t52 -->
<g id="edge25" class="edge"><title>t49&#45;&gt;t52</title>
<path style="fill:none;stroke:gray;" d="M172,-331C192,-320 214,-307 232,-292 249,-278 249,-270 263,-256 290,-229 322,-202 346,-182"/>
<polygon style="fill:gray;stroke:gray;" points="348.1,-184.8 354,-176 343.9,-179.2 348.1,-184.8"/>
</g>
<!-- t57 -->
<g id="node35" class="node"><title>t57</title>
<polygon style="fill:none;stroke:blue;" points="271,-234 173,-234 169,-230 169,-198 267,-198 271,-202 271,-234"/>
<polyline style="fill:none;stroke:blue;" points="267,-230 169,-230 "/>
<polyline style="fill:none;stroke:blue;" points="267,-230 267,-198 "/>
<polyline style="fill:none;stroke:blue;" points="267,-230 271,-234 "/>
<text text-anchor="middle" x="220" y="-209.5" style="font-family:Times New Roman;font-size:20.00;fill:blue;">runPanther</text>
</g>
<!-- t49&#45;&gt;t57 -->
<g id="edge63" class="edge"><title>t49&#45;&gt;t57</title>
<path style="fill:none;stroke:gray;" d="M179,-333C196,-323 213,-310 223,-292 231,-278 231,-259 228,-244"/>
<polygon style="fill:gray;stroke:gray;" points="231.393,-243.119 226,-234 224.529,-244.492 231.393,-243.119"/>
</g>
<!-- t51 -->
<g id="node26" class="node"><title>t51</title>
<polygon style="fill:#90ee90;stroke:green;" points="149,-234 37,-234 33,-230 33,-198 145,-198 149,-202 149,-234"/>
<polyline style="fill:none;stroke:green;" points="145,-230 33,-230 "/>
<polyline style="fill:none;stroke:green;" points="145,-230 145,-198 "/>
<polyline style="fill:none;stroke:green;" points="145,-230 149,-234 "/>
<text text-anchor="middle" x="91" y="-209.5" style="font-family:Times New Roman;font-size:20.00;">runPolyphen</text>
</g>
<!-- t50&#45;&gt;t51 -->
<g id="edge21" class="edge"><title>t50&#45;&gt;t51</title>
<path style="fill:none;stroke:gray;" d="M108,-256C106,-252 104,-248 102,-243"/>
<polygon style="fill:gray;stroke:gray;" points="105.26,-241.717 98,-234 98.8631,-244.56 105.26,-241.717"/>
</g>
<!-- t53 -->
<g id="node28" class="node"><title>t53</title>
<polygon style="fill:#90ee90;stroke:green;" points="151,-176 31,-176 27,-172 27,-140 147,-140 151,-144 151,-176"/>
<polyline style="fill:none;stroke:green;" points="147,-172 27,-172 "/>
<polyline style="fill:none;stroke:green;" points="147,-172 147,-140 "/>
<polyline style="fill:none;stroke:green;" points="147,-172 151,-176 "/>
<text text-anchor="middle" x="89" y="-151.5" style="font-family:Times New Roman;font-size:20.00;">loadPolyphen</text>
</g>
<!-- t51&#45;&gt;t53 -->
<g id="edge23" class="edge"><title>t51&#45;&gt;t53</title>
<path style="fill:none;stroke:gray;" d="M90,-198C90,-194 90,-190 90,-186"/>
<polygon style="fill:gray;stroke:gray;" points="93.5001,-186 90,-176 86.5001,-186 93.5001,-186"/>
</g>
<!-- t67 -->
<g id="node39" class="node"><title>t67</title>
<polygon style="fill:none;stroke:blue;" points="336,-118 270,-118 266,-114 266,-82 332,-82 336,-86 336,-118"/>
<polyline style="fill:none;stroke:blue;" points="332,-114 266,-114 "/>
<polyline style="fill:none;stroke:blue;" points="332,-114 332,-82 "/>
<polyline style="fill:none;stroke:blue;" points="332,-114 336,-118 "/>
<text text-anchor="middle" x="301" y="-93.5" style="font-family:Times New Roman;font-size:20.00;fill:blue;">effects</text>
</g>
<!-- t53&#45;&gt;t67 -->
<g id="edge65" class="edge"><title>t53&#45;&gt;t67</title>
<path style="fill:none;stroke:gray;" d="M151,-141C185,-132 226,-121 256,-113"/>
<polygon style="fill:gray;stroke:gray;" points="257.427,-116.226 266,-110 255.416,-109.521 257.427,-116.226"/>
</g>
<!-- t52&#45;&gt;t67 -->
<g id="edge67" class="edge"><title>t52&#45;&gt;t67</title>
<path style="fill:none;stroke:gray;" d="M353,-140C347,-135 340,-130 333,-124"/>
<polygon style="fill:gray;stroke:gray;" points="335.1,-121.2 325,-118 330.9,-126.8 335.1,-121.2"/>
</g>
<!-- t12 -->
<g id="node32" class="node"><title>t12</title>
<polygon style="fill:#90ee90;stroke:green;" points="388,-376 234,-376 230,-372 230,-340 384,-340 388,-344 388,-376"/>
<polyline style="fill:none;stroke:green;" points="384,-372 230,-372 "/>
<polyline style="fill:none;stroke:green;" points="384,-372 384,-340 "/>
<polyline style="fill:none;stroke:green;" points="384,-372 388,-376 "/>
<text text-anchor="middle" x="309" y="-351.5" style="font-family:Times New Roman;font-size:20.00;">buildPeptideFasta</text>
</g>
<!-- t56 -->
<g id="node33" class="node"><title>t56</title>
<polygon style="fill:#90ee90;stroke:green;" points="408,-292 276,-292 272,-288 272,-256 404,-256 408,-260 408,-292"/>
<polyline style="fill:none;stroke:green;" points="404,-288 272,-288 "/>
<polyline style="fill:none;stroke:green;" points="404,-288 404,-256 "/>
<polyline style="fill:none;stroke:green;" points="404,-288 408,-292 "/>
<text text-anchor="middle" x="340" y="-267.5" style="font-family:Times New Roman;font-size:20.00;">preparePanther</text>
</g>
<!-- t12&#45;&gt;t56 -->
<g id="edge27" class="edge"><title>t12&#45;&gt;t56</title>
<path style="fill:none;stroke:gray;" d="M316,-340C320,-329 325,-314 330,-302"/>
<polygon style="fill:gray;stroke:gray;" points="333.479,-302.584 333,-292 326.774,-300.573 333.479,-302.584"/>
</g>
<!-- t56&#45;&gt;t57 -->
<g id="edge29" class="edge"><title>t56&#45;&gt;t57</title>
<path style="fill:none;stroke:gray;" d="M303,-256C291,-250 278,-244 266,-238"/>
<polygon style="fill:gray;stroke:gray;" points="267.56,-234.863 257,-234 264.717,-241.26 267.56,-234.863"/>
</g>
<!-- t58 -->
<g id="node37" class="node"><title>t58</title>
<polygon style="fill:none;stroke:blue;" points="279,-176 173,-176 169,-172 169,-140 275,-140 279,-144 279,-176"/>
<polyline style="fill:none;stroke:blue;" points="275,-172 169,-172 "/>
<polyline style="fill:none;stroke:blue;" points="275,-172 275,-140 "/>
<polyline style="fill:none;stroke:blue;" points="275,-172 279,-176 "/>
<text text-anchor="middle" x="224" y="-151.5" style="font-family:Times New Roman;font-size:20.00;fill:blue;">loadPanther</text>
</g>
<!-- t57&#45;&gt;t58 -->
<g id="edge31" class="edge"><title>t57&#45;&gt;t58</title>
<path style="fill:none;stroke:blue;" d="M221,-198C221,-194 221,-190 222,-186"/>
<polygon style="fill:blue;stroke:blue;" points="225.488,-186.299 223,-176 218.522,-185.602 225.488,-186.299"/>
</g>
<!-- t58&#45;&gt;t67 -->
<g id="edge33" class="edge"><title>t58&#45;&gt;t67</title>
<path style="fill:none;stroke:blue;" d="M248,-140C254,-135 262,-129 269,-124"/>
<polygon style="fill:blue;stroke:blue;" points="271.1,-126.8 277,-118 266.9,-121.2 271.1,-126.8"/>
</g>
<!-- t67&#45;&gt;t68 -->
<g id="edge45" class="edge"><title>t67&#45;&gt;t68</title>
<path style="fill:none;stroke:blue;" d="M336,-92C385,-81 473,-62 523,-50"/>
<polygon style="fill:blue;stroke:blue;" points="523.881,-53.3933 533,-48 522.508,-46.5292 523.881,-53.3933"/>
</g>
<!-- t28 -->
<g id="node43" class="node"><title>t28</title>
<polygon style="fill:#90ee90;stroke:green;" points="680,-292 576,-292 572,-288 572,-256 676,-256 680,-260 680,-292"/>
<polyline style="fill:none;stroke:green;" points="676,-288 572,-288 "/>
<polyline style="fill:none;stroke:green;" points="676,-288 676,-256 "/>
<polyline style="fill:none;stroke:green;" points="676,-288 680,-292 "/>
<text text-anchor="middle" x="626" y="-267.5" style="font-family:Times New Roman;font-size:20.00;">loadAlleles</text>
</g>
<!-- t27&#45;&gt;t28 -->
<g id="edge37" class="edge"><title>t27&#45;&gt;t28</title>
<path style="fill:none;stroke:gray;" d="M603,-340C607,-329 612,-314 617,-302"/>
<polygon style="fill:gray;stroke:gray;" points="620.479,-302.584 620,-292 613.774,-300.573 620.479,-302.584"/>
</g>
<!-- t66 -->
<g id="node49" class="node"><title>t66</title>
<polygon style="fill:none;stroke:blue;" points="672,-118 608,-118 604,-114 604,-82 668,-82 672,-86 672,-118"/>
<polyline style="fill:none;stroke:blue;" points="668,-114 604,-114 "/>
<polyline style="fill:none;stroke:blue;" points="668,-114 668,-82 "/>
<polyline style="fill:none;stroke:blue;" points="668,-114 672,-118 "/>
<text text-anchor="middle" x="638" y="-93.5" style="font-family:Times New Roman;font-size:20.00;fill:blue;">alleles</text>
</g>
<!-- t27&#45;&gt;t66 -->
<g id="edge75" class="edge"><title>t27&#45;&gt;t66</title>
<path style="fill:none;stroke:gray;" d="M623,-340C636,-332 650,-322 663,-314 724,-276 766,-295 801,-234 823,-196 805,-168 771,-140 746,-119 710,-109 682,-105"/>
<polygon style="fill:gray;stroke:gray;" points="682.492,-101.529 672,-103 681.119,-108.393 682.492,-101.529"/>
</g>
<!-- t29 -->
<g id="node45" class="node"><title>t29</title>
<polygon style="fill:#90ee90;stroke:green;" points="792,-234 528,-234 524,-230 524,-198 788,-198 792,-202 792,-234"/>
<polyline style="fill:none;stroke:green;" points="788,-230 524,-230 "/>
<polyline style="fill:none;stroke:green;" points="788,-230 788,-198 "/>
<polyline style="fill:none;stroke:green;" points="788,-230 792,-234 "/>
<text text-anchor="middle" x="658" y="-209.5" style="font-family:Times New Roman;font-size:20.00;">summarizeAllelesPerTranscript</text>
</g>
<!-- t28&#45;&gt;t29 -->
<g id="edge39" class="edge"><title>t28&#45;&gt;t29</title>
<path style="fill:none;stroke:gray;" d="M636,-256C638,-252 641,-247 643,-243"/>
<polygon style="fill:gray;stroke:gray;" points="646.203,-244.441 648,-234 640.084,-241.042 646.203,-244.441"/>
</g>
<!-- t28&#45;&gt;t66 -->
<g id="edge73" class="edge"><title>t28&#45;&gt;t66</title>
<path style="fill:none;stroke:gray;" d="M572,-257C546,-249 519,-239 515,-234 491,-199 491,-173 515,-140 525,-126 563,-115 594,-108"/>
<polygon style="fill:gray;stroke:gray;" points="594.881,-111.393 604,-106 593.508,-104.529 594.881,-111.393"/>
</g>
<!-- t30 -->
<g id="node47" class="node"><title>t30</title>
<polygon style="fill:#90ee90;stroke:green;" points="752,-176 528,-176 524,-172 524,-140 748,-140 752,-144 752,-176"/>
<polyline style="fill:none;stroke:green;" points="748,-172 524,-172 "/>
<polyline style="fill:none;stroke:green;" points="748,-172 748,-140 "/>
<polyline style="fill:none;stroke:green;" points="748,-172 752,-176 "/>
<text text-anchor="middle" x="638" y="-151.5" style="font-family:Times New Roman;font-size:20.00;">summarizeAllelesPerGene</text>
</g>
<!-- t29&#45;&gt;t30 -->
<g id="edge41" class="edge"><title>t29&#45;&gt;t30</title>
<path style="fill:none;stroke:gray;" d="M652,-198C651,-194 649,-190 648,-186"/>
<polygon style="fill:gray;stroke:gray;" points="650.964,-183.985 644,-176 644.464,-186.585 650.964,-183.985"/>
</g>
<!-- t29&#45;&gt;t66 -->
<g id="edge71" class="edge"><title>t29&#45;&gt;t66</title>
<path style="fill:none;stroke:gray;" d="M721,-198C740,-191 756,-184 761,-176 771,-162 771,-152 761,-140 752,-126 714,-115 682,-108"/>
<polygon style="fill:gray;stroke:gray;" points="682.492,-104.529 672,-106 681.119,-111.393 682.492,-104.529"/>
</g>
<!-- t30&#45;&gt;t66 -->
<g id="edge43" class="edge"><title>t30&#45;&gt;t66</title>
<path style="fill:none;stroke:gray;" d="M638,-140C638,-136 638,-132 638,-128"/>
<polygon style="fill:gray;stroke:gray;" points="641.5,-128 638,-118 634.5,-128 641.5,-128"/>
</g>
<!-- t66&#45;&gt;t68 -->
<g id="edge47" class="edge"><title>t66&#45;&gt;t68</title>
<path style="fill:none;stroke:blue;" d="M614,-82C608,-77 600,-71 593,-66"/>
<polygon style="fill:blue;stroke:blue;" points="594.262,-62.6349 584,-60 590.379,-68.4592 594.262,-62.6349"/>
</g>
<!-- k1 -->
<g id="node69" class="node"><title>k1</title>
<polygon style="fill:#90ee90;stroke:green;" points="1362,-585.5 1214,-585.5 1210,-581.5 1210,-534.5 1358,-534.5 1362,-538.5 1362,-585.5"/>
<polyline style="fill:none;stroke:green;" points="1358,-581.5 1210,-581.5 "/>
<polyline style="fill:none;stroke:green;" points="1358,-581.5 1358,-534.5 "/>
<polyline style="fill:none;stroke:green;" points="1358,-581.5 1362,-585.5 "/>
<text text-anchor="middle" x="1286" y="-553.5" style="font-family:Times New Roman;font-size:20.00;">Up&#45;to&#45;date task</text>
</g>
<!-- k2 -->
<g id="node70" class="node"><title>k2</title>
<polygon style="fill:none;stroke:blue;" points="1345,-493.5 1231,-493.5 1227,-489.5 1227,-442.5 1341,-442.5 1345,-446.5 1345,-493.5"/>
<polyline style="fill:none;stroke:blue;" points="1341,-489.5 1227,-489.5 "/>
<polyline style="fill:none;stroke:blue;" points="1341,-489.5 1341,-442.5 "/>
<polyline style="fill:none;stroke:blue;" points="1341,-489.5 1345,-493.5 "/>
<text text-anchor="middle" x="1286" y="-461.5" style="font-family:Times New Roman;font-size:20.00;fill:blue;">Task to run</text>
</g>
<!-- k1&#45;&gt;k2 -->
<g id="edge78" class="edge"><title>k1&#45;&gt;k2</title>
<path style="fill:none;stroke:gray;" d="M1286,-534C1286,-524 1286,-514 1286,-504"/>
<polygon style="fill:gray;stroke:gray;" points="1289.5,-504 1286,-494 1282.5,-504 1289.5,-504"/>
</g>
<!-- k3 -->
<g id="node72" class="node"><title>k3</title>
<polygon style="fill:#fff68f;stroke:black;"  points="1347,-383.5 1229,-383.5 1225,-379.5 1225,-332.5 1343,-332.5 1347,-336.5 1347,-383.5"/>
<polyline style="fill:none;stroke:black;"    points="1343,-379.5 1225,-379.5 "/>
<polyline style="fill:none;stroke:black;"    points="1343,-379.5 1343,-332.5 "/>
<polyline style="fill:none;stroke:black;"    points="1343,-379.5 1347,-383.5 "/>
<text text-anchor="middle" x="1286" y="-351.5" style="font-family:Times New Roman;font-size:20.00;">Final target</text>
</g>
<!-- k2&#45;&gt;k3 -->
<g id="edge80" class="edge"><title>k2&#45;&gt;k3</title>
<path style="fill:none;stroke:blue;" d="M1286,-442C1286,-428 1286,-410 1286,-394"/>
<polygon style="fill:blue;stroke:blue;" points="1289.5,-394 1286,-384 1282.5,-394 1289.5,-394"/>
</g>
</g>
</svg>
