<?xml version="1.0" encoding="UTF-8" standalone="no"?>
<!DOCTYPE svg PUBLIC "-//W3C//DTD SVG 1.0//EN"
 "http://www.w3.org/TR/2001/REC-SVG-20010904/DTD/svg10.dtd" [
 <!ATTLIST svg xmlns:xlink CDATA #FIXED "http://www.w3.org/1999/xlink">
]>
<!-- Generated by Graphviz version 2.20.2 (Mon Aug &#160;4 08:59:22 UTC 2008)
     For user: (lg) Leo Goodstadt -->
<!-- Title: dless2 Pages: 1 -->
<svg width="834pt" height="480pt"
 viewBox="0.00 0.00 834.00 480.00" xmlns="http://www.w3.org/2000/svg" xmlns:xlink="http://www.w3.org/1999/xlink">
<g id="graph0" class="graph" transform="scale(1 1) rotate(0) translate(4 476)">
<title>dless2</title>
<polygon style="fill:white;stroke:white;" points="-4,4 -4,-476 830,-476 830,4 -4,4"/>
<g id="cluster2" class="cluster"><title>clustertasks</title>
<polygon style="fill:none;stroke:black;" points="8,-16 8,-456 574,-456 574,-16 8,-16"/>
<text text-anchor="middle" x="291" y="-424.892" style="font-family:Times New Roman;font-size:30.0px;fill:#ff3232;">dless2</text>
</g>
<g id="cluster3" class="cluster"><title>clusterkey1</title>
<polygon style="fill:#f6f4f4;stroke:#f6f4f4;" points="582,-132 582,-464 818,-464 818,-132 582,-132"/>
<text text-anchor="middle" x="700" y="-432.892" style="font-family:Times New Roman;font-size:30.0px;">Key:</text>
</g>
<!-- t1 -->
<g id="node2" class="node"><title>t1</title>
<polygon style="fill:#b8cc6e;stroke:#006000;" points="551,-406 289,-406 285,-402 285,-370 547,-370 551,-374 551,-406"/>
<polyline style="fill:none;stroke:#006000;" points="547,-402 285,-402 "/>
<polyline style="fill:none;stroke:#006000;" points="547,-402 547,-370 "/>
<polyline style="fill:none;stroke:#006000;" points="547,-402 551,-406 "/>
<text text-anchor="middle" x="418" y="-381.392" style="font-family:Times New Roman;font-size:20.0px;fill:#006000;">Make directories [DLESS, test]</text>
</g>
<!-- t0 -->
<g id="node3" class="node"><title>t0</title>
<polygon style="fill:#b8cc6e;stroke:#006000;" points="566,-332 274,-332 270,-328 270,-296 562,-296 566,-300 566,-332"/>
<polyline style="fill:none;stroke:#006000;" points="562,-328 270,-328 "/>
<polyline style="fill:none;stroke:#006000;" points="562,-328 562,-296 "/>
<polyline style="fill:none;stroke:#006000;" points="562,-328 566,-332 "/>
<text text-anchor="middle" x="418" y="-307.392" style="font-family:Times New Roman;font-size:20.0px;fill:#006000;">copy_maf_into_working_directory</text>
</g>
<!-- t1&#45;&gt;t0 -->
<g id="edge3" class="edge"><title>t1&#45;&gt;t0</title>
<path style="fill:none;stroke:gray;" d="M418,-370C418,-361 418,-352 418,-342"/>
<polygon style="fill:gray;stroke:gray;" points="421.5,-342 418,-332 414.5,-342 421.5,-342"/>
</g>
<!-- t4 -->
<g id="node5" class="node"><title>t4</title>
<polygon style="fill:#b8cc6e;stroke:#006000;" points="566,-258 360,-258 356,-254 356,-222 562,-222 566,-226 566,-258"/>
<polyline style="fill:none;stroke:#006000;" points="562,-254 356,-254 "/>
<polyline style="fill:none;stroke:#006000;" points="562,-254 562,-222 "/>
<polyline style="fill:none;stroke:#006000;" points="562,-254 566,-258 "/>
<text text-anchor="middle" x="461" y="-233.392" style="font-family:Times New Roman;font-size:20.0px;fill:#006000;">project_maf_alignments</text>
</g>
<!-- t0&#45;&gt;t4 -->
<g id="edge5" class="edge"><title>t0&#45;&gt;t4</title>
<path style="fill:none;stroke:gray;" d="M429,-296C434,-287 440,-277 445,-267"/>
<polygon style="fill:gray;stroke:gray;" points="448.203,-268.441 450,-258 442.084,-265.042 448.203,-268.441"/>
</g>
<!-- t6 -->
<g id="node7" class="node"><title>t6</title>
<polygon style="fill:none;stroke:black;" points="544,-184 382,-184 378,-180 378,-148 540,-148 544,-152 544,-184"/>
<polyline style="fill:none;stroke:black;" points="540,-180 378,-180 "/>
<polyline style="fill:none;stroke:black;" points="540,-180 540,-148 "/>
<polyline style="fill:none;stroke:black;" points="540,-180 544,-184 "/>
<text text-anchor="middle" x="461" y="-159.392" style="font-family:Times New Roman;font-size:20.0px;">convert_maf2fasta</text>
</g>
<!-- t4&#45;&gt;t6 -->
<g id="edge7" class="edge"><title>t4&#45;&gt;t6</title>
<path style="fill:none;stroke:gray;" d="M461,-222C461,-213 461,-204 461,-194"/>
<polygon style="fill:gray;stroke:gray;" points="464.5,-194 461,-184 457.5,-194 464.5,-194"/>
</g>
<!-- t5 -->
<g id="node12" class="node"><title>t5</title>
<polygon style="fill:#ebf3ff;stroke:#0044a0;" points="352,-184 146,-184 142,-180 142,-148 348,-148 352,-152 352,-184"/>
<polyline style="fill:none;stroke:#0044a0;" points="348,-180 142,-180 "/>
<polyline style="fill:none;stroke:#0044a0;" points="348,-180 348,-148 "/>
<polyline style="fill:none;stroke:#0044a0;" points="348,-180 352,-184 "/>
<text text-anchor="middle" x="247" y="-159.392" style="font-family:Times New Roman;font-size:20.0px;fill:#0044a0;">generate_neutral_model</text>
</g>
<!-- t4&#45;&gt;t5 -->
<g id="edge11" class="edge"><title>t4&#45;&gt;t5</title>
<path style="fill:none;stroke:gray;" d="M409,-222C379,-211 341,-199 309,-187"/>
<polygon style="fill:gray;stroke:gray;" points="309.584,-183.521 299,-184 307.573,-190.226 309.584,-183.521"/>
</g>
<!-- t7 -->
<g id="node15" class="node"><title>t7</title>
<polygon style="fill:#ebf3ff;stroke:#0044a0;" points="450,-118 254,-118 250,-114 250,-82 446,-82 450,-86 450,-118"/>
<polyline style="fill:none;stroke:#0044a0;" points="446,-114 250,-114 "/>
<polyline style="fill:none;stroke:#0044a0;" points="446,-114 446,-82 "/>
<polyline style="fill:none;stroke:#0044a0;" points="446,-114 450,-118 "/>
<text text-anchor="middle" x="350" y="-93.392" style="font-family:Times New Roman;font-size:20.0px;fill:#0044a0;">generate_indel_history</text>
</g>
<!-- t6&#45;&gt;t7 -->
<g id="edge15" class="edge"><title>t6&#45;&gt;t7</title>
<path style="fill:none;stroke:#0044a0;" d="M431,-148C418,-141 403,-131 390,-123"/>
<polygon style="fill:#0044a0;stroke:#0044a0;" points="391.441,-119.797 381,-118 388.042,-125.916 391.441,-119.797"/>
</g>
<!-- t8 -->
<g id="node18" class="node"><title>t8</title>
<polygon style="fill:#efa03b;stroke:black;" points="396,-60 308,-60 304,-56 304,-24 392,-24 396,-28 396,-60"/>
<polyline style="fill:none;stroke:black;" points="392,-56 304,-56 "/>
<polyline style="fill:none;stroke:black;" points="392,-56 392,-24 "/>
<polyline style="fill:none;stroke:black;" points="392,-56 396,-60 "/>
<text text-anchor="middle" x="350" y="-35.392" style="font-family:Times New Roman;font-size:20.0px;">run_dless</text>
</g>
<!-- t6&#45;&gt;t8 -->
<g id="edge21" class="edge"><title>t6&#45;&gt;t8</title>
<path style="fill:none;stroke:#0044a0;" d="M466,-148C470,-129 473,-101 459,-82 452,-72 429,-64 406,-56"/>
<polygon style="fill:#0044a0;stroke:#0044a0;" points="406.584,-52.5212 396,-53 404.573,-59.2259 406.584,-52.5212"/>
</g>
<!-- t3 -->
<g id="node9" class="node"><title>t3</title>
<polygon style="fill:#b8cc6e;stroke:#006000;" points="252,-332 26,-332 22,-328 22,-296 248,-296 252,-300 252,-332"/>
<polyline style="fill:none;stroke:#006000;" points="248,-328 22,-328 "/>
<polyline style="fill:none;stroke:#006000;" points="248,-328 248,-296 "/>
<polyline style="fill:none;stroke:#006000;" points="248,-328 252,-332 "/>
<text text-anchor="middle" x="137" y="-307.392" style="font-family:Times New Roman;font-size:20.0px;fill:#006000;">Make directories [DLESS]</text>
</g>
<!-- t2 -->
<g id="node10" class="node"><title>t2</title>
<polygon style="fill:#ebf3ff;stroke:#0044a0;" points="338,-258 20,-258 16,-254 16,-222 334,-222 338,-226 338,-258"/>
<polyline style="fill:none;stroke:#0044a0;" points="334,-254 16,-254 "/>
<polyline style="fill:none;stroke:#0044a0;" points="334,-254 334,-222 "/>
<polyline style="fill:none;stroke:#0044a0;" points="334,-254 338,-258 "/>
<text text-anchor="middle" x="177" y="-233.392" style="font-family:Times New Roman;font-size:20.0px;fill:#0044a0;">copy_repeats_into_working_directory</text>
</g>
<!-- t3&#45;&gt;t2 -->
<g id="edge9" class="edge"><title>t3&#45;&gt;t2</title>
<path style="fill:none;stroke:gray;" d="M147,-296C152,-287 157,-277 162,-267"/>
<polygon style="fill:gray;stroke:gray;" points="165.203,-268.441 167,-258 159.084,-265.042 165.203,-268.441"/>
</g>
<!-- t2&#45;&gt;t5 -->
<g id="edge13" class="edge"><title>t2&#45;&gt;t5</title>
<path style="fill:none;stroke:#0044a0;" d="M194,-222C203,-212 213,-202 223,-192"/>
<polygon style="fill:#0044a0;stroke:#0044a0;" points="226.049,-193.831 230,-184 220.781,-189.221 226.049,-193.831"/>
</g>
<!-- t5&#45;&gt;t7 -->
<g id="edge17" class="edge"><title>t5&#45;&gt;t7</title>
<path style="fill:none;stroke:#0044a0;" d="M275,-148C287,-141 301,-131 313,-123"/>
<polygon style="fill:#0044a0;stroke:#0044a0;" points="314.958,-125.916 322,-118 311.559,-119.797 314.958,-125.916"/>
</g>
<!-- t5&#45;&gt;t8 -->
<g id="edge23" class="edge"><title>t5&#45;&gt;t8</title>
<path style="fill:none;stroke:#0044a0;" d="M240,-148C234,-129 228,-101 241,-82 248,-72 271,-63 294,-56"/>
<polygon style="fill:#0044a0;stroke:#0044a0;" points="295.427,-59.2259 304,-53 293.416,-52.5212 295.427,-59.2259"/>
</g>
<!-- t7&#45;&gt;t8 -->
<g id="edge19" class="edge"><title>t7&#45;&gt;t8</title>
<path style="fill:none;stroke:#0044a0;" d="M350,-82C350,-78 350,-74 350,-70"/>
<polygon style="fill:#0044a0;stroke:#0044a0;" points="353.5,-70 350,-60 346.5,-70 353.5,-70"/>
</g>
<!-- k1_1 -->
<g id="node23" class="node"><title>k1_1</title>
<polygon style="fill:#b8cc6e;stroke:#006000;" points="776,-413.5 628,-413.5 624,-409.5 624,-362.5 772,-362.5 776,-366.5 776,-413.5"/>
<polyline style="fill:none;stroke:#006000;" points="772,-409.5 624,-409.5 "/>
<polyline style="fill:none;stroke:#006000;" points="772,-409.5 772,-362.5 "/>
<polyline style="fill:none;stroke:#006000;" points="772,-409.5 776,-413.5 "/>
<text text-anchor="middle" x="700" y="-381.392" style="font-family:Times New Roman;font-size:20.0px;fill:#006000;">Up&#45;to&#45;date task</text>
</g>
<!-- k2_1 -->
<g id="node24" class="node"><title>k2_1</title>
<polygon style="fill:none;stroke:black;" points="810,-339.5 594,-339.5 590,-335.5 590,-288.5 806,-288.5 810,-292.5 810,-339.5"/>
<polyline style="fill:none;stroke:black;" points="806,-335.5 590,-335.5 "/>
<polyline style="fill:none;stroke:black;" points="806,-335.5 806,-288.5 "/>
<polyline style="fill:none;stroke:black;" points="806,-335.5 810,-339.5 "/>
<text text-anchor="middle" x="700" y="-307.392" style="font-family:Times New Roman;font-size:20.0px;">Explicitly specified task</text>
</g>
<!-- k1_1&#45;&gt;k2_1 -->
<g id="edge26" class="edge"><title>k1_1&#45;&gt;k2_1</title>
<path style="fill:none;stroke:gray;" d="M700,-362C700,-358 700,-354 700,-350"/>
<polygon style="fill:gray;stroke:gray;" points="703.5,-350 700,-340 696.5,-350 703.5,-350"/>
</g>
<!-- k3_1 -->
<g id="node26" class="node"><title>k3_1</title>
<polygon style="fill:#ebf3ff;stroke:#0044a0;" points="758,-265.5 646,-265.5 642,-261.5 642,-214.5 754,-214.5 758,-218.5 758,-265.5"/>
<polyline style="fill:none;stroke:#0044a0;" points="754,-261.5 642,-261.5 "/>
<polyline style="fill:none;stroke:#0044a0;" points="754,-261.5 754,-214.5 "/>
<polyline style="fill:none;stroke:#0044a0;" points="754,-261.5 758,-265.5 "/>
<text text-anchor="middle" x="700" y="-233.392" style="font-family:Times New Roman;font-size:20.0px;fill:#0044a0;">Task to run</text>
</g>
<!-- k2_1&#45;&gt;k3_1 -->
<g id="edge28" class="edge"><title>k2_1&#45;&gt;k3_1</title>
<path style="fill:none;stroke:#0044a0;" d="M700,-288C700,-284 700,-280 700,-276"/>
<polygon style="fill:#0044a0;stroke:#0044a0;" points="703.5,-276 700,-266 696.5,-276 703.5,-276"/>
</g>
<!-- k4_1 -->
<g id="node28" class="node"><title>k4_1</title>
<polygon style="fill:#efa03b;stroke:black;" points="760,-191.5 644,-191.5 640,-187.5 640,-140.5 756,-140.5 760,-144.5 760,-191.5"/>
<polyline style="fill:none;stroke:black;" points="756,-187.5 640,-187.5 "/>
<polyline style="fill:none;stroke:black;" points="756,-187.5 756,-140.5 "/>
<polyline style="fill:none;stroke:black;" points="756,-187.5 760,-191.5 "/>
<text text-anchor="middle" x="700" y="-159.392" style="font-family:Times New Roman;font-size:20.0px;">Final target</text>
</g>
<!-- k3_1&#45;&gt;k4_1 -->
<g id="edge30" class="edge"><title>k3_1&#45;&gt;k4_1</title>
<path style="fill:none;stroke:#0044a0;" d="M700,-214C700,-210 700,-206 700,-202"/>
<polygon style="fill:#0044a0;stroke:#0044a0;" points="703.5,-202 700,-192 696.5,-202 703.5,-202"/>
</g>
</g>
</svg>
