<?xml version="1.0" encoding="UTF-8" standalone="no"?>
<!DOCTYPE svg PUBLIC "-//W3C//DTD SVG 1.0//EN"
 "http://www.w3.org/TR/2001/REC-SVG-20010904/DTD/svg10.dtd" [
 <!ATTLIST svg xmlns:xlink CDATA #FIXED "http://www.w3.org/1999/xlink">
]>
<!-- Generated by Graphviz version 2.20.2 (Mon Aug &#160;4 08:59:22 UTC 2008)
     For user: Andreas Heger -->
<!-- Title: tree Pages: 1 -->
<svg width="864pt" height="420pt"
 viewBox="0.00 0.00 432.00 210.08" xmlns="http://www.w3.org/2000/svg" xmlns:xlink="http://www.w3.org/1999/xlink">
<g id="graph0" class="graph" transform="scale(0.311688 0.311688) rotate(0) translate(4 670)">
<title>SNP Annotation Pipeline (consequences)</title>
<polygon style="fill:white;stroke:white;" points="-4,4 -4,-670 1382,-670 1382,4 -4,4"/>
<g id="cluster2" class="cluster"><title>clustertasks</title>
<polygon style="fill:none;stroke:black;" points="8,-16 8,-639 1194,-639 1194,-16 8,-16"/>
<text text-anchor="middle" x="601" y="-608" style="font-family:Times New Roman;font-size:20.00pt;fill:red;"><tspan font-weight = "bold">SNP Annotation Pipeline (consequences):</tspan></text>
</g>
<g id="cluster3" class="cluster"><title>clusterkey</title>
<polygon style="fill:#e5e5e5;stroke:#e5e5e5;" points="1202,-324 1202,-658 1370,-658 1370,-324 1202,-324"/>
<text text-anchor="middle" x="1286" y="-627" style="font-family:Times New Roman;font-size:30.00;">Key:</text>
</g>
<!-- t11 -->
<g id="node2" class="node"><title>t11</title>
<polygon style="fill:#90ee90;stroke:green;" points="851,-589 629,-589 625,-585 625,-553 847,-553 851,-557 851,-589"/>
<polyline style="fill:none;stroke:green;" points="847,-585 625,-585 "/>
<polyline style="fill:none;stroke:green;" points="847,-585 847,-553 "/>
<polyline style="fill:none;stroke:green;" points="847,-585 851,-589 "/>
<text text-anchor="middle" x="738" y="-564.5" style="font-family:Times New Roman;font-size:20.00;">loadTranscriptInformation</text>
</g>
<!-- t16 -->
<g id="node4" class="node"><title>t16</title>
<polygon style="fill:#90ee90;stroke:green;" points="917.809,-455.794 995,-428.5 1072.19,-455.794 1072.12,-499.956 917.881,-499.956 917.809,-455.794"/>
<polygon style="fill:none;stroke:green;" points="913.804,-452.967 995,-424.257 1076.2,-452.967 1076.11,-503.956 913.887,-503.956 913.804,-452.967"/>
<text text-anchor="middle" x="995" y="-461.5" style="font-family:Times New Roman;font-size:20.00;">buildSelenoList</text>
</g>
<!-- t11&#45;&gt;t16 -->
<g id="edge25" class="edge"><title>t11&#45;&gt;t16</title>
<path style="fill:none;stroke:gray;" d="M783,-553C816,-539 864,-521 905,-504"/>
<polygon style="fill:gray;stroke:gray;" points="906.283,-507.26 914,-500 903.44,-500.863 906.283,-507.26"/>
</g>
<!-- t64 -->
<g id="node21" class="node"><title>t64</title>
<polygon style="fill:white;stroke:gray;" points="672,-292 600,-292 596,-288 596,-256 668,-256 672,-260 672,-292"/>
<polyline style="fill:none;stroke:gray;" points="668,-288 596,-288 "/>
<polyline style="fill:none;stroke:gray;" points="668,-288 668,-256 "/>
<polyline style="fill:none;stroke:gray;" points="668,-288 672,-292 "/>
<text text-anchor="middle" x="634" y="-267.5" style="font-family:Times New Roman;font-size:20.00;fill:gray;">prepare</text>
</g>
<!-- t11&#45;&gt;t64 -->
<g id="edge19" class="edge"><title>t11&#45;&gt;t64</title>
<path style="fill:none;stroke:gray;" d="M707,-553C665,-526 592,-472 567,-402 555,-365 548,-348 567,-314 572,-305 579,-299 587,-293"/>
<polygon style="fill:gray;stroke:gray;" points="588.958,-295.916 596,-288 585.559,-289.797 588.958,-295.916"/>
</g>
<!-- t15 -->
<g id="node3" class="node"><title>t15</title>
<polygon style="fill:#90ee90;stroke:green;" points="1068,-589 926,-589 922,-585 922,-553 1064,-553 1068,-557 1068,-589"/>
<polyline style="fill:none;stroke:green;" points="1064,-585 922,-585 "/>
<polyline style="fill:none;stroke:green;" points="1064,-585 1064,-553 "/>
<polyline style="fill:none;stroke:green;" points="1064,-585 1068,-589 "/>
<text text-anchor="middle" x="995" y="-564.5" style="font-family:Times New Roman;font-size:20.00;">loadProteinStats</text>
</g>
<!-- t15&#45;&gt;t16 -->
<g id="edge3" class="edge"><title>t15&#45;&gt;t16</title>
<path style="fill:none;stroke:gray;" d="M995,-553C995,-542 995,-528 995,-514"/>
<polygon style="fill:gray;stroke:gray;" points="998.5,-514 995,-504 991.5,-514 998.5,-514"/>
</g>
<!-- t25 -->
<g id="node6" class="node"><title>t25</title>
<polygon style="fill:#90ee90;stroke:green;" points="1186,-376 1074,-376 1070,-372 1070,-340 1182,-340 1186,-344 1186,-376"/>
<polyline style="fill:none;stroke:green;" points="1182,-372 1070,-372 "/>
<polyline style="fill:none;stroke:green;" points="1182,-372 1182,-340 "/>
<polyline style="fill:none;stroke:green;" points="1182,-372 1186,-376 "/>
<text text-anchor="middle" x="1128" y="-351.5" style="font-family:Times New Roman;font-size:20.00;">makeEffects</text>
</g>
<!-- t16&#45;&gt;t25 -->
<g id="edge5" class="edge"><title>t16&#45;&gt;t25</title>
<path style="fill:none;stroke:gray;" d="M1032,-437C1053,-420 1079,-399 1098,-383"/>
<polygon style="fill:gray;stroke:gray;" points="1100.78,-385.219 1106,-376 1096.17,-379.951 1100.78,-385.219"/>
</g>
<!-- t27 -->
<g id="node49" class="node"><title>t27</title>
<polygon style="fill:white;stroke:gray;" points="1052,-376 942,-376 938,-372 938,-340 1048,-340 1052,-344 1052,-376"/>
<polyline style="fill:none;stroke:gray;" points="1048,-372 938,-372 "/>
<polyline style="fill:none;stroke:gray;" points="1048,-372 1048,-340 "/>
<polyline style="fill:none;stroke:gray;" points="1048,-372 1052,-376 "/>
<text text-anchor="middle" x="995" y="-351.5" style="font-family:Times New Roman;font-size:20.00;fill:gray;">buildAlleles</text>
</g>
<!-- t16&#45;&gt;t27 -->
<g id="edge53" class="edge"><title>t16&#45;&gt;t27</title>
<path style="fill:none;stroke:gray;" d="M995,-424C995,-412 995,-398 995,-386"/>
<polygon style="fill:gray;stroke:gray;" points="998.5,-386 995,-376 991.5,-386 998.5,-386"/>
</g>
<!-- t26 -->
<g id="node8" class="node"><title>t26</title>
<polygon style="fill:#90ee90;stroke:green;" points="1186,-292 1082,-292 1078,-288 1078,-256 1182,-256 1186,-260 1186,-292"/>
<polyline style="fill:none;stroke:green;" points="1182,-288 1078,-288 "/>
<polyline style="fill:none;stroke:green;" points="1182,-288 1182,-256 "/>
<polyline style="fill:none;stroke:green;" points="1182,-288 1186,-292 "/>
<text text-anchor="middle" x="1132" y="-267.5" style="font-family:Times New Roman;font-size:20.00;">loadEffects</text>
</g>
<!-- t25&#45;&gt;t26 -->
<g id="edge7" class="edge"><title>t25&#45;&gt;t26</title>
<path style="fill:none;stroke:gray;" d="M1129,-340C1130,-329 1130,-315 1130,-302"/>
<polygon style="fill:gray;stroke:gray;" points="1133.49,-302.299 1131,-292 1126.52,-301.602 1133.49,-302.299"/>
</g>
<!-- t65 -->
<g id="node10" class="node"><title>t65</title>
<polygon style="fill:#fff68f;stroke:black;"  points="1140,-234 1020,-234 1016,-230 1016,-198 1136,-198 1140,-202 1140,-234"/>
<polyline style="fill:none;stroke:black;"    points="1136,-230 1016,-230 "/>
<polyline style="fill:none;stroke:black;"    points="1136,-230 1136,-198 "/>
<polyline style="fill:none;stroke:black;"    points="1136,-230 1140,-234 "/>
<text text-anchor="middle" x="1078" y="-209.5" style="font-family:Times New Roman;font-size:20.00;">consequences</text>
</g>
<!-- t25&#45;&gt;t65 -->
<g id="edge27" class="edge"><title>t25&#45;&gt;t65</title>
<path style="fill:none;stroke:gray;" d="M1106,-340C1092,-328 1077,-311 1069,-292 1063,-277 1065,-258 1068,-244"/>
<polygon style="fill:gray;stroke:gray;" points="1071.48,-244.584 1071,-234 1064.77,-242.573 1071.48,-244.584"/>
</g>
<!-- t26&#45;&gt;t65 -->
<g id="edge9" class="edge"><title>t26&#45;&gt;t65</title>
<path style="fill:none;stroke:gray;" d="M1115,-256C1111,-252 1106,-247 1102,-242"/>
<polygon style="fill:gray;stroke:gray;" points="1104.22,-239.221 1095,-234 1098.95,-243.831 1104.22,-239.221"/>
</g>
<!-- t68 -->
<g id="node63" class="node"><title>t68</title>
<polygon style="fill:white;stroke:gray;" points="765,-60 715,-60 711,-56 711,-24 761,-24 765,-28 765,-60"/>
<polyline style="fill:none;stroke:gray;" points="761,-56 711,-56 "/>
<polyline style="fill:none;stroke:gray;" points="761,-56 761,-24 "/>
<polyline style="fill:none;stroke:gray;" points="761,-56 765,-60 "/>
<text text-anchor="middle" x="738" y="-35.5" style="font-family:Times New Roman;font-size:20.00;fill:gray;">full</text>
</g>
<!-- t65&#45;&gt;t68 -->
<g id="edge71" class="edge"><title>t65&#45;&gt;t68</title>
<path style="fill:none;stroke:gray;" d="M1056,-198C1036,-182 1006,-158 977,-140 931,-110 919,-103 867,-82 837,-70 801,-59 775,-52"/>
<polygon style="fill:gray;stroke:gray;" points="775.584,-48.5212 765,-49 773.573,-55.2259 775.584,-48.5212"/>
</g>
<!-- t8 -->
<g id="node12" class="node"><title>t8</title>
<polygon style="fill:white;stroke:gray;" points="809,-486 667,-486 663,-482 663,-450 805,-450 809,-454 809,-486"/>
<polyline style="fill:none;stroke:gray;" points="805,-482 663,-482 "/>
<polyline style="fill:none;stroke:gray;" points="805,-482 805,-450 "/>
<polyline style="fill:none;stroke:gray;" points="805,-482 809,-486 "/>
<text text-anchor="middle" x="736" y="-461.5" style="font-family:Times New Roman;font-size:20.00;fill:gray;">buildTranscripts</text>
</g>
<!-- t9 -->
<g id="node13" class="node"><title>t9</title>
<polygon style="fill:white;stroke:gray;" points="716,-376 580,-376 576,-372 576,-340 712,-340 716,-344 716,-376"/>
<polyline style="fill:none;stroke:gray;" points="712,-372 576,-372 "/>
<polyline style="fill:none;stroke:gray;" points="712,-372 712,-340 "/>
<polyline style="fill:none;stroke:gray;" points="712,-372 716,-376 "/>
<text text-anchor="middle" x="646" y="-351.5" style="font-family:Times New Roman;font-size:20.00;fill:gray;">loadTranscripts</text>
</g>
<!-- t8&#45;&gt;t9 -->
<g id="edge11" class="edge"><title>t8&#45;&gt;t9</title>
<path style="fill:none;stroke:gray;" d="M721,-450C707,-432 684,-405 667,-384"/>
<polygon style="fill:gray;stroke:gray;" points="669.8,-381.9 661,-376 664.2,-386.1 669.8,-381.9"/>
</g>
<!-- t8&#45;&gt;t27 -->
<g id="edge51" class="edge"><title>t8&#45;&gt;t27</title>
<path style="fill:none;stroke:gray;" d="M802,-450C840,-439 888,-422 929,-402 941,-397 952,-389 963,-382"/>
<polygon style="fill:gray;stroke:gray;" points="965.1,-384.8 971,-376 960.9,-379.2 965.1,-384.8"/>
</g>
<!-- t9&#45;&gt;t64 -->
<g id="edge17" class="edge"><title>t9&#45;&gt;t64</title>
<path style="fill:none;stroke:gray;" d="M643,-340C641,-329 640,-314 638,-302"/>
<polygon style="fill:gray;stroke:gray;" points="641.478,-301.602 637,-292 634.512,-302.299 641.478,-301.602"/>
</g>
<!-- t4 -->
<g id="node15" class="node"><title>t4</title>
<polygon style="fill:white;stroke:gray;" points="553,-589 395,-589 391,-585 391,-553 549,-553 553,-557 553,-589"/>
<polyline style="fill:none;stroke:gray;" points="549,-585 391,-585 "/>
<polyline style="fill:none;stroke:gray;" points="549,-585 549,-553 "/>
<polyline style="fill:none;stroke:gray;" points="549,-585 553,-589 "/>
<text text-anchor="middle" x="472" y="-564.5" style="font-family:Times New Roman;font-size:20.00;fill:gray;">buildGeneRegions</text>
</g>
<!-- t5 -->
<g id="node16" class="node"><title>t5</title>
<polygon style="fill:white;stroke:gray;" points="525,-486 423,-486 419,-482 419,-450 521,-450 525,-454 525,-486"/>
<polyline style="fill:none;stroke:gray;" points="521,-482 419,-482 "/>
<polyline style="fill:none;stroke:gray;" points="521,-482 521,-450 "/>
<polyline style="fill:none;stroke:gray;" points="521,-482 525,-486 "/>
<text text-anchor="middle" x="472" y="-461.5" style="font-family:Times New Roman;font-size:20.00;fill:gray;">buildGenes</text>
</g>
<!-- t4&#45;&gt;t5 -->
<g id="edge13" class="edge"><title>t4&#45;&gt;t5</title>
<path style="fill:none;stroke:gray;" d="M472,-553C472,-537 472,-514 472,-496"/>
<polygon style="fill:gray;stroke:gray;" points="475.5,-496 472,-486 468.5,-496 475.5,-496"/>
</g>
<!-- t7 -->
<g id="node18" class="node"><title>t7</title>
<polygon style="fill:white;stroke:gray;" points="538,-376 410,-376 406,-372 406,-340 534,-340 538,-344 538,-376"/>
<polyline style="fill:none;stroke:gray;" points="534,-372 406,-372 "/>
<polyline style="fill:none;stroke:gray;" points="534,-372 534,-340 "/>
<polyline style="fill:none;stroke:gray;" points="534,-372 538,-376 "/>
<text text-anchor="middle" x="472" y="-351.5" style="font-family:Times New Roman;font-size:20.00;fill:gray;">loadGeneStats</text>
</g>
<!-- t5&#45;&gt;t7 -->
<g id="edge15" class="edge"><title>t5&#45;&gt;t7</title>
<path style="fill:none;stroke:gray;" d="M472,-450C472,-433 472,-407 472,-386"/>
<polygon style="fill:gray;stroke:gray;" points="475.5,-386 472,-376 468.5,-386 475.5,-386"/>
</g>
<!-- t7&#45;&gt;t64 -->
<g id="edge21" class="edge"><title>t7&#45;&gt;t64</title>
<path style="fill:none;stroke:gray;" d="M504,-340C518,-332 536,-322 552,-314 563,-308 575,-302 587,-297"/>
<polygon style="fill:gray;stroke:gray;" points="588.958,-299.916 596,-292 585.559,-293.797 588.958,-299.916"/>
</g>
<!-- t6 -->
<g id="node20" class="node"><title>t6</title>
<polygon style="fill:white;stroke:gray;" points="920,-376 738,-376 734,-372 734,-340 916,-340 920,-344 920,-376"/>
<polyline style="fill:none;stroke:gray;" points="916,-372 734,-372 "/>
<polyline style="fill:none;stroke:gray;" points="916,-372 916,-340 "/>
<polyline style="fill:none;stroke:gray;" points="916,-372 920,-376 "/>
<text text-anchor="middle" x="827" y="-351.5" style="font-family:Times New Roman;font-size:20.00;fill:gray;">loadGeneInformation</text>
</g>
<!-- t6&#45;&gt;t64 -->
<g id="edge23" class="edge"><title>t6&#45;&gt;t64</title>
<path style="fill:none;stroke:gray;" d="M786,-340C755,-326 713,-309 681,-294"/>
<polygon style="fill:gray;stroke:gray;" points="682.56,-290.863 672,-290 679.717,-297.26 682.56,-290.863"/>
</g>
<!-- t64&#45;&gt;t68 -->
<g id="edge69" class="edge"><title>t64&#45;&gt;t68</title>
<path style="fill:none;stroke:gray;" d="M640,-256C650,-230 668,-181 686,-140 697,-115 712,-88 723,-69"/>
<polygon style="fill:gray;stroke:gray;" points="726.203,-70.4414 728,-60 720.084,-67.0418 726.203,-70.4414"/>
</g>
<!-- t49 -->
<g id="node28" class="node"><title>t49</title>
<polygon style="fill:white;stroke:gray;" points="19.9571,-345.794 114,-318.5 208.043,-345.794 207.955,-389.956 20.0448,-389.956 19.9571,-345.794"/>
<polygon style="fill:none;stroke:gray;" points="15.9511,-342.791 114,-314.335 212.049,-342.791 211.947,-393.956 16.0528,-393.956 15.9511,-342.791"/>
<text text-anchor="middle" x="114" y="-351.5" style="font-family:Times New Roman;font-size:20.00;fill:gray;">buildPolyphenInput</text>
</g>
<!-- t50 -->
<g id="node29" class="node"><title>t50</title>
<polygon style="fill:white;stroke:gray;" points="299,-292 105,-292 101,-288 101,-256 295,-256 299,-260 299,-292"/>
<polyline style="fill:none;stroke:gray;" points="295,-288 101,-288 "/>
<polyline style="fill:none;stroke:gray;" points="295,-288 295,-256 "/>
<polyline style="fill:none;stroke:gray;" points="295,-288 299,-292 "/>
<text text-anchor="middle" x="200" y="-267.5" style="font-family:Times New Roman;font-size:20.00;fill:gray;">buildPolyphenFeatures</text>
</g>
<!-- t49&#45;&gt;t50 -->
<g id="edge29" class="edge"><title>t49&#45;&gt;t50</title>
<path style="fill:none;stroke:gray;" d="M148,-324C156,-316 165,-307 174,-299"/>
<polygon style="fill:gray;stroke:gray;" points="176.404,-301.546 181,-292 171.454,-296.596 176.404,-301.546"/>
</g>
<!-- t52 -->
<g id="node35" class="node"><title>t52</title>
<polygon style="fill:white;stroke:gray;" points="176,-176 20,-176 16,-172 16,-140 172,-140 176,-144 176,-176"/>
<polyline style="fill:none;stroke:gray;" points="172,-172 16,-172 "/>
<polyline style="fill:none;stroke:gray;" points="172,-172 172,-140 "/>
<polyline style="fill:none;stroke:gray;" points="172,-172 176,-176 "/>
<text text-anchor="middle" x="96" y="-151.5" style="font-family:Times New Roman;font-size:20.00;fill:gray;">loadPolyphenMap</text>
</g>
<!-- t49&#45;&gt;t52 -->
<g id="edge35" class="edge"><title>t49&#45;&gt;t52</title>
<path style="fill:none;stroke:gray;" d="M99,-319C96,-310 93,-301 92,-292 87,-256 89,-213 92,-186"/>
<polygon style="fill:gray;stroke:gray;" points="95.4875,-186.299 93,-176 88.5222,-185.602 95.4875,-186.299"/>
</g>
<!-- t57 -->
<g id="node40" class="node"><title>t57</title>
<polygon style="fill:white;stroke:gray;" points="442,-234 344,-234 340,-230 340,-198 438,-198 442,-202 442,-234"/>
<polyline style="fill:none;stroke:gray;" points="438,-230 340,-230 "/>
<polyline style="fill:none;stroke:gray;" points="438,-230 438,-198 "/>
<polyline style="fill:none;stroke:gray;" points="438,-230 442,-234 "/>
<text text-anchor="middle" x="391" y="-209.5" style="font-family:Times New Roman;font-size:20.00;fill:gray;">runPanther</text>
</g>
<!-- t49&#45;&gt;t57 -->
<g id="edge39" class="edge"><title>t49&#45;&gt;t57</title>
<path style="fill:none;stroke:gray;" d="M174,-332C189,-325 206,-319 221,-314 259,-301 277,-316 308,-292 323,-280 316,-269 328,-256 334,-250 340,-245 347,-240"/>
<polygon style="fill:gray;stroke:gray;" points="349.1,-242.8 355,-234 344.9,-237.2 349.1,-242.8"/>
</g>
<!-- t51 -->
<g id="node31" class="node"><title>t51</title>
<polygon style="fill:white;stroke:gray;" points="286,-234 174,-234 170,-230 170,-198 282,-198 286,-202 286,-234"/>
<polyline style="fill:none;stroke:gray;" points="282,-230 170,-230 "/>
<polyline style="fill:none;stroke:gray;" points="282,-230 282,-198 "/>
<polyline style="fill:none;stroke:gray;" points="282,-230 286,-234 "/>
<text text-anchor="middle" x="228" y="-209.5" style="font-family:Times New Roman;font-size:20.00;fill:gray;">runPolyphen</text>
</g>
<!-- t50&#45;&gt;t51 -->
<g id="edge31" class="edge"><title>t50&#45;&gt;t51</title>
<path style="fill:none;stroke:gray;" d="M209,-256C211,-252 213,-248 215,-243"/>
<polygon style="fill:gray;stroke:gray;" points="218.137,-244.56 219,-234 211.74,-241.717 218.137,-244.56"/>
</g>
<!-- t53 -->
<g id="node33" class="node"><title>t53</title>
<polygon style="fill:white;stroke:gray;" points="318,-176 198,-176 194,-172 194,-140 314,-140 318,-144 318,-176"/>
<polyline style="fill:none;stroke:gray;" points="314,-172 194,-172 "/>
<polyline style="fill:none;stroke:gray;" points="314,-172 314,-140 "/>
<polyline style="fill:none;stroke:gray;" points="314,-172 318,-176 "/>
<text text-anchor="middle" x="256" y="-151.5" style="font-family:Times New Roman;font-size:20.00;fill:gray;">loadPolyphen</text>
</g>
<!-- t51&#45;&gt;t53 -->
<g id="edge33" class="edge"><title>t51&#45;&gt;t53</title>
<path style="fill:none;stroke:gray;" d="M237,-198C239,-194 241,-190 243,-185"/>
<polygon style="fill:gray;stroke:gray;" points="246.137,-186.56 247,-176 239.74,-183.717 246.137,-186.56"/>
</g>
<!-- t67 -->
<g id="node45" class="node"><title>t67</title>
<polygon style="fill:white;stroke:gray;" points="359,-118 293,-118 289,-114 289,-82 355,-82 359,-86 359,-118"/>
<polyline style="fill:none;stroke:gray;" points="355,-114 289,-114 "/>
<polyline style="fill:none;stroke:gray;" points="355,-114 355,-82 "/>
<polyline style="fill:none;stroke:gray;" points="355,-114 359,-118 "/>
<text text-anchor="middle" x="324" y="-93.5" style="font-family:Times New Roman;font-size:20.00;fill:gray;">effects</text>
</g>
<!-- t53&#45;&gt;t67 -->
<g id="edge45" class="edge"><title>t53&#45;&gt;t67</title>
<path style="fill:none;stroke:gray;" d="M277,-140C283,-135 289,-130 295,-124"/>
<polygon style="fill:gray;stroke:gray;" points="297.1,-126.8 303,-118 292.9,-121.2 297.1,-126.8"/>
</g>
<!-- t52&#45;&gt;t67 -->
<g id="edge47" class="edge"><title>t52&#45;&gt;t67</title>
<path style="fill:none;stroke:gray;" d="M167,-140C204,-131 248,-120 279,-111"/>
<polygon style="fill:gray;stroke:gray;" points="279.881,-114.393 289,-109 278.508,-107.529 279.881,-114.393"/>
</g>
<!-- t12 -->
<g id="node37" class="node"><title>t12</title>
<polygon style="fill:white;stroke:gray;" points="388,-376 234,-376 230,-372 230,-340 384,-340 388,-344 388,-376"/>
<polyline style="fill:none;stroke:gray;" points="384,-372 230,-372 "/>
<polyline style="fill:none;stroke:gray;" points="384,-372 384,-340 "/>
<polyline style="fill:none;stroke:gray;" points="384,-372 388,-376 "/>
<text text-anchor="middle" x="309" y="-351.5" style="font-family:Times New Roman;font-size:20.00;fill:gray;">buildPeptideFasta</text>
</g>
<!-- t56 -->
<g id="node38" class="node"><title>t56</title>
<polygon style="fill:white;stroke:gray;" points="473,-292 341,-292 337,-288 337,-256 469,-256 473,-260 473,-292"/>
<polyline style="fill:none;stroke:gray;" points="469,-288 337,-288 "/>
<polyline style="fill:none;stroke:gray;" points="469,-288 469,-256 "/>
<polyline style="fill:none;stroke:gray;" points="469,-288 473,-292 "/>
<text text-anchor="middle" x="405" y="-267.5" style="font-family:Times New Roman;font-size:20.00;fill:gray;">preparePanther</text>
</g>
<!-- t12&#45;&gt;t56 -->
<g id="edge37" class="edge"><title>t12&#45;&gt;t56</title>
<path style="fill:none;stroke:gray;" d="M330,-340C343,-328 361,-312 376,-299"/>
<polygon style="fill:gray;stroke:gray;" points="378.779,-301.219 384,-292 374.169,-295.951 378.779,-301.219"/>
</g>
<!-- t56&#45;&gt;t57 -->
<g id="edge41" class="edge"><title>t56&#45;&gt;t57</title>
<path style="fill:none;stroke:gray;" d="M401,-256C400,-252 399,-248 398,-244"/>
<polygon style="fill:gray;stroke:gray;" points="401.393,-243.119 396,-234 394.529,-244.492 401.393,-243.119"/>
</g>
<!-- t58 -->
<g id="node43" class="node"><title>t58</title>
<polygon style="fill:white;stroke:gray;" points="446,-176 340,-176 336,-172 336,-140 442,-140 446,-144 446,-176"/>
<polyline style="fill:none;stroke:gray;" points="442,-172 336,-172 "/>
<polyline style="fill:none;stroke:gray;" points="442,-172 442,-140 "/>
<polyline style="fill:none;stroke:gray;" points="442,-172 446,-176 "/>
<text text-anchor="middle" x="391" y="-151.5" style="font-family:Times New Roman;font-size:20.00;fill:gray;">loadPanther</text>
</g>
<!-- t57&#45;&gt;t58 -->
<g id="edge43" class="edge"><title>t57&#45;&gt;t58</title>
<path style="fill:none;stroke:gray;" d="M391,-198C391,-194 391,-190 391,-186"/>
<polygon style="fill:gray;stroke:gray;" points="394.5,-186 391,-176 387.5,-186 394.5,-186"/>
</g>
<!-- t58&#45;&gt;t67 -->
<g id="edge49" class="edge"><title>t58&#45;&gt;t67</title>
<path style="fill:none;stroke:gray;" d="M370,-140C364,-135 359,-130 353,-125"/>
<polygon style="fill:gray;stroke:gray;" points="354.831,-121.951 345,-118 350.221,-127.219 354.831,-121.951"/>
</g>
<!-- t67&#45;&gt;t68 -->
<g id="edge73" class="edge"><title>t67&#45;&gt;t68</title>
<path style="fill:none;stroke:gray;" d="M359,-95C437,-84 621,-58 701,-47"/>
<polygon style="fill:gray;stroke:gray;" points="701.398,-50.4778 711,-46 700.701,-43.5125 701.398,-50.4778"/>
</g>
<!-- t28 -->
<g id="node52" class="node"><title>t28</title>
<polygon style="fill:white;stroke:gray;" points="1040,-292 936,-292 932,-288 932,-256 1036,-256 1040,-260 1040,-292"/>
<polyline style="fill:none;stroke:gray;" points="1036,-288 932,-288 "/>
<polyline style="fill:none;stroke:gray;" points="1036,-288 1036,-256 "/>
<polyline style="fill:none;stroke:gray;" points="1036,-288 1040,-292 "/>
<text text-anchor="middle" x="986" y="-267.5" style="font-family:Times New Roman;font-size:20.00;fill:gray;">loadAlleles</text>
</g>
<!-- t27&#45;&gt;t28 -->
<g id="edge55" class="edge"><title>t27&#45;&gt;t28</title>
<path style="fill:none;stroke:gray;" d="M993,-340C991,-329 990,-315 989,-302"/>
<polygon style="fill:gray;stroke:gray;" points="992.478,-301.602 988,-292 985.512,-302.299 992.478,-301.602"/>
</g>
<!-- t66 -->
<g id="node58" class="node"><title>t66</title>
<polygon style="fill:white;stroke:gray;" points="858,-118 794,-118 790,-114 790,-82 854,-82 858,-86 858,-118"/>
<polyline style="fill:none;stroke:gray;" points="854,-114 790,-114 "/>
<polyline style="fill:none;stroke:gray;" points="854,-114 854,-82 "/>
<polyline style="fill:none;stroke:gray;" points="854,-114 858,-118 "/>
<text text-anchor="middle" x="824" y="-93.5" style="font-family:Times New Roman;font-size:20.00;fill:gray;">alleles</text>
</g>
<!-- t27&#45;&gt;t66 -->
<g id="edge61" class="edge"><title>t27&#45;&gt;t66</title>
<path style="fill:none;stroke:gray;" d="M972,-340C959,-331 944,-321 929,-314 833,-266 764,-321 701,-234 689,-216 689,-156 701,-140 711,-126 749,-115 780,-108"/>
<polygon style="fill:gray;stroke:gray;" points="780.881,-111.393 790,-106 779.508,-104.529 780.881,-111.393"/>
</g>
<!-- t29 -->
<g id="node54" class="node"><title>t29</title>
<polygon style="fill:white;stroke:gray;" points="978,-234 714,-234 710,-230 710,-198 974,-198 978,-202 978,-234"/>
<polyline style="fill:none;stroke:gray;" points="974,-230 710,-230 "/>
<polyline style="fill:none;stroke:gray;" points="974,-230 974,-198 "/>
<polyline style="fill:none;stroke:gray;" points="974,-230 978,-234 "/>
<text text-anchor="middle" x="844" y="-209.5" style="font-family:Times New Roman;font-size:20.00;fill:gray;">summarizeAllelesPerTranscript</text>
</g>
<!-- t28&#45;&gt;t29 -->
<g id="edge57" class="edge"><title>t28&#45;&gt;t29</title>
<path style="fill:none;stroke:gray;" d="M942,-256C928,-250 912,-244 897,-238"/>
<polygon style="fill:gray;stroke:gray;" points="898.56,-234.863 888,-234 895.717,-241.26 898.56,-234.863"/>
</g>
<!-- t28&#45;&gt;t66 -->
<g id="edge63" class="edge"><title>t28&#45;&gt;t66</title>
<path style="fill:none;stroke:gray;" d="M987,-256C987,-249 987,-241 987,-234 988,-190 991,-168 957,-140 932,-119 896,-109 868,-105"/>
<polygon style="fill:gray;stroke:gray;" points="868.492,-101.529 858,-103 867.119,-108.393 868.492,-101.529"/>
</g>
<!-- t30 -->
<g id="node56" class="node"><title>t30</title>
<polygon style="fill:white;stroke:gray;" points="938,-176 714,-176 710,-172 710,-140 934,-140 938,-144 938,-176"/>
<polyline style="fill:none;stroke:gray;" points="934,-172 710,-172 "/>
<polyline style="fill:none;stroke:gray;" points="934,-172 934,-140 "/>
<polyline style="fill:none;stroke:gray;" points="934,-172 938,-176 "/>
<text text-anchor="middle" x="824" y="-151.5" style="font-family:Times New Roman;font-size:20.00;fill:gray;">summarizeAllelesPerGene</text>
</g>
<!-- t29&#45;&gt;t30 -->
<g id="edge59" class="edge"><title>t29&#45;&gt;t30</title>
<path style="fill:none;stroke:gray;" d="M838,-198C837,-194 835,-190 834,-186"/>
<polygon style="fill:gray;stroke:gray;" points="836.964,-183.985 830,-176 830.464,-186.585 836.964,-183.985"/>
</g>
<!-- t29&#45;&gt;t66 -->
<g id="edge65" class="edge"><title>t29&#45;&gt;t66</title>
<path style="fill:none;stroke:gray;" d="M907,-198C926,-191 942,-184 947,-176 957,-162 957,-152 947,-140 938,-126 900,-115 868,-108"/>
<polygon style="fill:gray;stroke:gray;" points="868.492,-104.529 858,-106 867.119,-111.393 868.492,-104.529"/>
</g>
<!-- t30&#45;&gt;t66 -->
<g id="edge67" class="edge"><title>t30&#45;&gt;t66</title>
<path style="fill:none;stroke:gray;" d="M824,-140C824,-136 824,-132 824,-128"/>
<polygon style="fill:gray;stroke:gray;" points="827.5,-128 824,-118 820.5,-128 827.5,-128"/>
</g>
<!-- t66&#45;&gt;t68 -->
<g id="edge75" class="edge"><title>t66&#45;&gt;t68</title>
<path style="fill:none;stroke:gray;" d="M797,-82C790,-77 781,-71 773,-66"/>
<polygon style="fill:gray;stroke:gray;" points="775.1,-63.2 765,-60 770.9,-68.8 775.1,-63.2"/>
</g>
<!-- k1 -->
<g id="node69" class="node"><title>k1</title>
<polygon style="fill:white;stroke:gray;" points="1347,-608 1229,-608 1225,-604 1225,-534 1343,-534 1347,-538 1347,-608"/>
<polyline style="fill:none;stroke:gray;" points="1343,-604 1225,-604 "/>
<polyline style="fill:none;stroke:gray;" points="1343,-604 1343,-534 "/>
<polyline style="fill:none;stroke:gray;" points="1343,-604 1347,-608 "/>
<text text-anchor="middle" x="1286" y="-576" style="font-family:Times New Roman;font-size:20.00;fill:gray;">Up&#45;to&#45;date</text>
<text text-anchor="middle" x="1286" y="-553" style="font-family:Times New Roman;font-size:20.00;fill:gray;">dependence</text>
</g>
<!-- k2 -->
<g id="node70" class="node"><title>k2</title>
<polygon style="fill:#90ee90;stroke:green;" points="1362,-493.5 1214,-493.5 1210,-489.5 1210,-442.5 1358,-442.5 1362,-446.5 1362,-493.5"/>
<polyline style="fill:none;stroke:green;" points="1358,-489.5 1210,-489.5 "/>
<polyline style="fill:none;stroke:green;" points="1358,-489.5 1358,-442.5 "/>
<polyline style="fill:none;stroke:green;" points="1358,-489.5 1362,-493.5 "/>
<text text-anchor="middle" x="1286" y="-461.5" style="font-family:Times New Roman;font-size:20.00;">Up&#45;to&#45;date task</text>
</g>
<!-- k1&#45;&gt;k2 -->
<g id="edge78" class="edge"><title>k1&#45;&gt;k2</title>
<path style="fill:none;stroke:gray;" d="M1286,-534C1286,-524 1286,-514 1286,-504"/>
<polygon style="fill:gray;stroke:gray;" points="1289.5,-504 1286,-494 1282.5,-504 1289.5,-504"/>
</g>
<!-- k3 -->
<g id="node72" class="node"><title>k3</title>
<polygon style="fill:#fff68f;stroke:black;" points="1347,-383.5 1229,-383.5 1225,-379.5 1225,-332.5 1343,-332.5 1347,-336.5 1347,-383.5"/>
<polyline style="fill:none;stroke:black;"   points="1343,-379.5 1225,-379.5 "/>
<polyline style="fill:none;stroke:black;"   points="1343,-379.5 1343,-332.5 "/>
<polyline style="fill:none;stroke:black;"   points="1343,-379.5 1347,-383.5 "/>
<text text-anchor="middle" x="1286" y="-351.5" style="font-family:Times New Roman;font-size:20.00;">Final target</text>
</g>
<!-- k2&#45;&gt;k3 -->
<g id="edge80" class="edge"><title>k2&#45;&gt;k3</title>
<path style="fill:none;stroke:gray;" d="M1286,-442C1286,-428 1286,-410 1286,-394"/>
<polygon style="fill:gray;stroke:gray;" points="1289.5,-394 1286,-384 1282.5,-394 1289.5,-394"/>
</g>
</g>
</svg>
